{
	"asset":{
		"generator":"Khronos glTF Blender I/O v3.6.27",
		"version":"2.0"
	},
	"scene":0,
	"scenes":[
		{
			"name":"Scene",
			"nodes":[
				2
			]
		}
	],
	"nodes":[
		{
			"mesh":0,
			"name":"Sphere",
			"scale":[
				1,
				0.5136514902114868,
				1
			],
			"translation":[
				-0.007047600578516722,
				0.6808417439460754,
				-0.008121348917484283
			]
		},
		{
			"name":"Bone",
			"translation":[
				1.8614637609104534e-10,
				0,
				-3.5499642114800167e-10
			]
		},
		{
			"children":[
				0,
				1
			],
			"name":"Armature",
			"rotation":[
				0,
				-0.7071068286895752,
				0,
				0.7071068286895752
			],
			"scale":[
				1,
				1.946845293045044,
				1
			],
			"translation":[
				0.017047643661499023,
				0.08318328857421875,
				0.008121371269226074
			]
		}
	],
	"animations":[
		{
			"channels":[
				{
					"sampler":0,
					"target":{
						"node":1,
						"path":"translation"
					}
				},
				{
					"sampler":1,
					"target":{
						"node":1,
						"path":"rotation"
					}
				},
				{
					"sampler":2,
					"target":{
						"node":1,
						"path":"scale"
					}
				},
				{
					"sampler":3,
					"target":{
						"node":2,
						"path":"translation"
					}
				},
				{
					"sampler":4,
					"target":{
						"node":2,
						"path":"rotation"
					}
				},
				{
					"sampler":5,
					"target":{
						"node":2,
						"path":"scale"
					}
				}
			],
			"name":"Jump Animation",
			"samplers":[
				{
					"input":8,
					"interpolation":"STEP",
					"output":9
				},
				{
					"input":8,
					"interpolation":"STEP",
					"output":10
				},
				{
					"input":8,
					"interpolation":"STEP",
					"output":11
				},
				{
					"input":8,
					"interpolation":"STEP",
					"output":12
				},
				{
					"input":8,
					"interpolation":"STEP",
					"output":13
				},
				{
					"input":14,
					"interpolation":"LINEAR",
					"output":15
				}
			]
		},
		{
			"channels":[
				{
					"sampler":0,
					"target":{
						"node":1,
						"path":"translation"
					}
				},
				{
					"sampler":1,
					"target":{
						"node":1,
						"path":"rotation"
					}
				},
				{
					"sampler":2,
					"target":{
						"node":1,
						"path":"scale"
					}
				},
				{
					"sampler":3,
					"target":{
						"node":2,
						"path":"translation"
					}
				},
				{
					"sampler":4,
					"target":{
						"node":2,
						"path":"rotation"
					}
				},
				{
					"sampler":5,
					"target":{
						"node":2,
						"path":"scale"
					}
				}
			],
			"name":"Right Movement",
			"samplers":[
				{
					"input":16,
					"interpolation":"STEP",
					"output":17
				},
				{
					"input":16,
					"interpolation":"STEP",
					"output":18
				},
				{
					"input":16,
					"interpolation":"STEP",
					"output":19
				},
				{
					"input":20,
					"interpolation":"LINEAR",
					"output":21
				},
				{
					"input":20,
					"interpolation":"LINEAR",
					"output":22
				},
				{
					"input":20,
					"interpolation":"LINEAR",
					"output":23
				}
			]
		}
	],
	"materials":[
		{
			"doubleSided":true,
			"name":"Material.001",
			"normalTexture":{
				"index":0
			},
			"pbrMetallicRoughness":{
				"baseColorFactor":[
					0.06918168067932129,
					0.6987397074699402,
					0.06246873363852501,
					1
				],
				"metallicFactor":0,
				"metallicRoughnessTexture":{
					"index":1
				}
			}
		},
		{
			"doubleSided":true,
			"name":"Material.002",
			"pbrMetallicRoughness":{
				"baseColorFactor":[
					0,
					0,
					0,
					1
				],
				"metallicFactor":0,
				"roughnessFactor":0.5
			}
		}
	],
	"meshes":[
		{
			"name":"Sphere",
			"primitives":[
				{
					"attributes":{
						"POSITION":0,
						"NORMAL":1,
						"TEXCOORD_0":2
					},
					"indices":3,
					"material":0
				},
				{
					"attributes":{
						"POSITION":4,
						"NORMAL":5,
						"TEXCOORD_0":6
					},
					"indices":7,
					"material":1
				}
			]
		}
	],
	"textures":[
		{
			"sampler":0,
			"source":0
		},
		{
			"sampler":0,
			"source":1
		}
	],
	"images":[
		{
			"bufferView":4,
			"mimeType":"image/png",
			"name":"Fingerprints_01_1K"
		},
		{
			"bufferView":5,
			"mimeType":"image/png",
			"name":"Fingerprints_01_1K"
		}
	],
	"skins":[
		{
			"inverseBindMatrices":24,
			"joints":[
				1
			],
			"name":"Armature"
		}
	],
	"accessors":[
		{
			"bufferView":0,
			"componentType":5126,
			"count":960,
			"max":[
				0.9588582515716553,
				0.6624246835708618,
				0.978052020072937
			],
			"min":[
				-1.0386614799499512,
				-1.380264401435852,
				-1.0194679498672485
			],
			"type":"VEC3"
		},
		{
			"bufferView":1,
			"componentType":5126,
			"count":960,
			"type":"VEC3"
		},
		{
			"bufferView":2,
			"componentType":5126,
			"count":960,
			"type":"VEC2"
		},
		{
			"bufferView":3,
			"componentType":5123,
			"count":1440,
			"type":"SCALAR"
		},
		{
			"bufferView":6,
			"componentType":5126,
			"count":384,
			"max":[
				1.00166654586792,
				-0.1379096806049347,
				0.6036838293075562
			],
			"min":[
				0.9405546188354492,
				-0.49173298478126526,
				-0.6692240834236145
			],
			"type":"VEC3"
		},
		{
			"bufferView":7,
			"componentType":5126,
			"count":384,
			"type":"VEC3"
		},
		{
			"bufferView":8,
			"componentType":5126,
			"count":384,
			"type":"VEC2"
		},
		{
			"bufferView":9,
			"componentType":5123,
			"count":744,
			"type":"SCALAR"
		},
		{
			"bufferView":10,
			"componentType":5126,
			"count":2,
			"max":[
				0.3333333333333333
			],
			"min":[
				0.03333333333333333
			],
			"type":"SCALAR"
		},
		{
			"bufferView":11,
			"componentType":5126,
			"count":2,
			"type":"VEC3"
		},
		{
			"bufferView":12,
			"componentType":5126,
			"count":2,
			"type":"VEC4"
		},
		{
			"bufferView":13,
			"componentType":5126,
			"count":2,
			"type":"VEC3"
		},
		{
			"bufferView":14,
			"componentType":5126,
			"count":2,
			"type":"VEC3"
		},
		{
			"bufferView":15,
			"componentType":5126,
			"count":2,
			"type":"VEC4"
		},
		{
			"bufferView":16,
			"componentType":5126,
			"count":10,
			"max":[
				0.3333333333333333
			],
			"min":[
				0.03333333333333333
			],
			"type":"SCALAR"
		},
		{
			"bufferView":17,
			"componentType":5126,
			"count":10,
			"type":"VEC3"
		},
		{
			"bufferView":18,
			"componentType":5126,
			"count":2,
			"max":[
				0.4
			],
			"min":[
				0.03333333333333333
			],
			"type":"SCALAR"
		},
		{
			"bufferView":19,
			"componentType":5126,
			"count":2,
			"type":"VEC3"
		},
		{
			"bufferView":20,
			"componentType":5126,
			"count":2,
			"type":"VEC4"
		},
		{
			"bufferView":21,
			"componentType":5126,
			"count":2,
			"type":"VEC3"
		},
		{
			"bufferView":22,
			"componentType":5126,
			"count":12,
			"max":[
				0.4
			],
			"min":[
				0.03333333333333333
			],
			"type":"SCALAR"
		},
		{
			"bufferView":23,
			"componentType":5126,
			"count":12,
			"type":"VEC3"
		},
		{
			"bufferView":24,
			"componentType":5126,
			"count":12,
			"type":"VEC4"
		},
		{
			"bufferView":25,
			"componentType":5126,
			"count":12,
			"type":"VEC3"
		},
		{
			"bufferView":26,
			"componentType":5126,
			"count":1,
			"type":"MAT4"
		}
	],
	"bufferViews":[
		{
			"buffer":0,
			"byteLength":11520,
			"byteOffset":0,
			"target":34962
		},
		{
			"buffer":0,
			"byteLength":11520,
			"byteOffset":11520,
			"target":34962
		},
		{
			"buffer":0,
			"byteLength":7680,
			"byteOffset":23040,
			"target":34962
		},
		{
			"buffer":0,
			"byteLength":2880,
			"byteOffset":30720,
			"target":34963
		},
		{
			"buffer":0,
			"byteLength":1082740,
			"byteOffset":33600
		},
		{
			"buffer":0,
			"byteLength":1029987,
			"byteOffset":1116340
		},
		{
			"buffer":0,
			"byteLength":4608,
			"byteOffset":2146328,
			"target":34962
		},
		{
			"buffer":0,
			"byteLength":4608,
			"byteOffset":2150936,
			"target":34962
		},
		{
			"buffer":0,
			"byteLength":3072,
			"byteOffset":2155544,
			"target":34962
		},
		{
			"buffer":0,
			"byteLength":1488,
			"byteOffset":2158616,
			"target":34963
		},
		{
			"buffer":0,
			"byteLength":8,
			"byteOffset":2160104
		},
		{
			"buffer":0,
			"byteLength":24,
			"byteOffset":2160112
		},
		{
			"buffer":0,
			"byteLength":32,
			"byteOffset":2160136
		},
		{
			"buffer":0,
			"byteLength":24,
			"byteOffset":2160168
		},
		{
			"buffer":0,
			"byteLength":24,
			"byteOffset":2160192
		},
		{
			"buffer":0,
			"byteLength":32,
			"byteOffset":2160216
		},
		{
			"buffer":0,
			"byteLength":40,
			"byteOffset":2160248
		},
		{
			"buffer":0,
			"byteLength":120,
			"byteOffset":2160288
		},
		{
			"buffer":0,
			"byteLength":8,
			"byteOffset":2160408
		},
		{
			"buffer":0,
			"byteLength":24,
			"byteOffset":2160416
		},
		{
			"buffer":0,
			"byteLength":32,
			"byteOffset":2160440
		},
		{
			"buffer":0,
			"byteLength":24,
			"byteOffset":2160472
		},
		{
			"buffer":0,
			"byteLength":48,
			"byteOffset":2160496
		},
		{
			"buffer":0,
			"byteLength":144,
			"byteOffset":2160544
		},
		{
			"buffer":0,
			"byteLength":192,
			"byteOffset":2160688
		},
		{
			"buffer":0,
			"byteLength":144,
			"byteOffset":2160880
		},
		{
			"buffer":0,
			"byteLength":64,
			"byteOffset":2161024
		}
	],
	"samplers":[
		{
			"magFilter":9729,
			"minFilter":9987
		}
	],
	"buffers":[
		{
			"byteLength":2161088,
			"uri":"data:application/octet-stream;base64,"
		}
	]
}
