{
	"asset":{
		"generator":"Khronos glTF Blender I/O v3.6.27",
		"version":"2.0"
	},
	"extensionsUsed":[
		"KHR_materials_transmission",
		"KHR_materials_specular",
		"KHR_materials_ior"
	],
	"scene":0,
	"scenes":[
		{
			"name":"Scene",
			"nodes":[
				0,
				1,
				2,
				3,
				4,
				5
			]
		}
	],
	"nodes":[
		{
			"mesh":0,
			"name":"Cube.001"
		},
		{
			"mesh":1,
			"name":"Cube.002"
		},
		{
			"mesh":2,
			"name":"Cube.003"
		},
		{
			"mesh":3,
			"name":"Cube.004"
		},
		{
			"mesh":4,
			"name":"Cube.005"
		},
		{
			"mesh":5,
			"name":"Cube.006"
		}
	],
	"materials":[
		{
			"doubleSided":true,
			"extensions":{
				"KHR_materials_transmission":{
					"transmissionFactor":0.800000011920929
				},
				"KHR_materials_specular":{
					"specularColorFactor":[
						0.9125390090870199,
						0.9125390090870199,
						0.9125390090870199
					]
				},
				"KHR_materials_ior":{
					"ior":1.4500000476837158
				}
			},
			"name":"Material.001",
			"pbrMetallicRoughness":{
				"baseColorTexture":{
					"index":0
				},
				"metallicFactor":0
			}
		}
	],
	"meshes":[
		{
			"name":"Cube.001",
			"primitives":[
				{
					"attributes":{
						"POSITION":0,
						"NORMAL":1,
						"TEXCOORD_0":2
					},
					"indices":3,
					"material":0
				}
			]
		},
		{
			"name":"Cube.002",
			"primitives":[
				{
					"attributes":{
						"POSITION":4,
						"NORMAL":5,
						"TEXCOORD_0":6
					},
					"indices":7,
					"material":0
				}
			]
		},
		{
			"name":"Cube.003",
			"primitives":[
				{
					"attributes":{
						"POSITION":8,
						"NORMAL":9,
						"TEXCOORD_0":10
					},
					"indices":11,
					"material":0
				}
			]
		},
		{
			"name":"Cube.004",
			"primitives":[
				{
					"attributes":{
						"POSITION":12,
						"NORMAL":13,
						"TEXCOORD_0":14
					},
					"indices":15,
					"material":0
				}
			]
		},
		{
			"name":"Cube.005",
			"primitives":[
				{
					"attributes":{
						"POSITION":16,
						"NORMAL":17,
						"TEXCOORD_0":18
					},
					"indices":19,
					"material":0
				}
			]
		},
		{
			"name":"Cube.006",
			"primitives":[
				{
					"attributes":{
						"POSITION":20,
						"NORMAL":21,
						"TEXCOORD_0":22
					},
					"indices":23,
					"material":0
				}
			]
		}
	],
	"textures":[
		{
			"sampler":0,
			"source":0
		}
	],
	"images":[
		{
			"bufferView":4,
			"mimeType":"image/png",
			"name":"cajotota"
		}
	],
	"accessors":[
		{
			"bufferView":0,
			"componentType":5126,
			"count":389,
			"max":[
				1.0157579183578491,
				1,
				1
			],
			"min":[
				-1.016027569770813,
				-1,
				-1
			],
			"type":"VEC3"
		},
		{
			"bufferView":1,
			"componentType":5126,
			"count":389,
			"type":"VEC3"
		},
		{
			"bufferView":2,
			"componentType":5126,
			"count":389,
			"type":"VEC2"
		},
		{
			"bufferView":3,
			"componentType":5123,
			"count":663,
			"type":"SCALAR"
		},
		{
			"bufferView":5,
			"componentType":5126,
			"count":205,
			"max":[
				1.004868745803833,
				1,
				1
			],
			"min":[
				-1.0088871717453003,
				-1,
				-1
			],
			"type":"VEC3"
		},
		{
			"bufferView":6,
			"componentType":5126,
			"count":205,
			"type":"VEC3"
		},
		{
			"bufferView":7,
			"componentType":5126,
			"count":205,
			"type":"VEC2"
		},
		{
			"bufferView":8,
			"componentType":5123,
			"count":369,
			"type":"SCALAR"
		},
		{
			"bufferView":9,
			"componentType":5126,
			"count":228,
			"max":[
				0.8646688461303711,
				1,
				1
			],
			"min":[
				-1,
				-1,
				-1
			],
			"type":"VEC3"
		},
		{
			"bufferView":10,
			"componentType":5126,
			"count":228,
			"type":"VEC3"
		},
		{
			"bufferView":11,
			"componentType":5126,
			"count":228,
			"type":"VEC2"
		},
		{
			"bufferView":12,
			"componentType":5123,
			"count":438,
			"type":"SCALAR"
		},
		{
			"bufferView":13,
			"componentType":5126,
			"count":33,
			"max":[
				0.9430723190307617,
				1,
				1
			],
			"min":[
				-0.7524905204772949,
				-1,
				-1
			],
			"type":"VEC3"
		},
		{
			"bufferView":14,
			"componentType":5126,
			"count":33,
			"type":"VEC3"
		},
		{
			"bufferView":15,
			"componentType":5126,
			"count":33,
			"type":"VEC2"
		},
		{
			"bufferView":16,
			"componentType":5123,
			"count":63,
			"type":"SCALAR"
		},
		{
			"bufferView":17,
			"componentType":5126,
			"count":59,
			"max":[
				1.004868745803833,
				0.04737645387649536,
				0.9370879530906677
			],
			"min":[
				0.7180337309837341,
				-1,
				-1
			],
			"type":"VEC3"
		},
		{
			"bufferView":18,
			"componentType":5126,
			"count":59,
			"type":"VEC3"
		},
		{
			"bufferView":19,
			"componentType":5126,
			"count":59,
			"type":"VEC2"
		},
		{
			"bufferView":20,
			"componentType":5123,
			"count":99,
			"type":"SCALAR"
		},
		{
			"bufferView":21,
			"componentType":5126,
			"count":135,
			"max":[
				1.0157579183578491,
				1,
				1
			],
			"min":[
				-0.7423975467681885,
				-1,
				-1
			],
			"type":"VEC3"
		},
		{
			"bufferView":22,
			"componentType":5126,
			"count":135,
			"type":"VEC3"
		},
		{
			"bufferView":23,
			"componentType":5126,
			"count":135,
			"type":"VEC2"
		},
		{
			"bufferView":24,
			"componentType":5123,
			"count":228,
			"type":"SCALAR"
		}
	],
	"bufferViews":[
		{
			"buffer":0,
			"byteLength":4668,
			"byteOffset":0,
			"target":34962
		},
		{
			"buffer":0,
			"byteLength":4668,
			"byteOffset":4668,
			"target":34962
		},
		{
			"buffer":0,
			"byteLength":3112,
			"byteOffset":9336,
			"target":34962
		},
		{
			"buffer":0,
			"byteLength":1326,
			"byteOffset":12448,
			"target":34963
		},
		{
			"buffer":0,
			"byteLength":159734,
			"byteOffset":13776
		},
		{
			"buffer":0,
			"byteLength":2460,
			"byteOffset":173512,
			"target":34962
		},
		{
			"buffer":0,
			"byteLength":2460,
			"byteOffset":175972,
			"target":34962
		},
		{
			"buffer":0,
			"byteLength":1640,
			"byteOffset":178432,
			"target":34962
		},
		{
			"buffer":0,
			"byteLength":738,
			"byteOffset":180072,
			"target":34963
		},
		{
			"buffer":0,
			"byteLength":2736,
			"byteOffset":180812,
			"target":34962
		},
		{
			"buffer":0,
			"byteLength":2736,
			"byteOffset":183548,
			"target":34962
		},
		{
			"buffer":0,
			"byteLength":1824,
			"byteOffset":186284,
			"target":34962
		},
		{
			"buffer":0,
			"byteLength":876,
			"byteOffset":188108,
			"target":34963
		},
		{
			"buffer":0,
			"byteLength":396,
			"byteOffset":188984,
			"target":34962
		},
		{
			"buffer":0,
			"byteLength":396,
			"byteOffset":189380,
			"target":34962
		},
		{
			"buffer":0,
			"byteLength":264,
			"byteOffset":189776,
			"target":34962
		},
		{
			"buffer":0,
			"byteLength":126,
			"byteOffset":190040,
			"target":34963
		},
		{
			"buffer":0,
			"byteLength":708,
			"byteOffset":190168,
			"target":34962
		},
		{
			"buffer":0,
			"byteLength":708,
			"byteOffset":190876,
			"target":34962
		},
		{
			"buffer":0,
			"byteLength":472,
			"byteOffset":191584,
			"target":34962
		},
		{
			"buffer":0,
			"byteLength":198,
			"byteOffset":192056,
			"target":34963
		},
		{
			"buffer":0,
			"byteLength":1620,
			"byteOffset":192256,
			"target":34962
		},
		{
			"buffer":0,
			"byteLength":1620,
			"byteOffset":193876,
			"target":34962
		},
		{
			"buffer":0,
			"byteLength":1080,
			"byteOffset":195496,
			"target":34962
		},
		{
			"buffer":0,
			"byteLength":456,
			"byteOffset":196576,
			"target":34963
		}
	],
	"samplers":[
		{
			"magFilter":9728,
			"minFilter":9984
		}
	],
	"buffers":[
		{
			"byteLength":197032,
			"uri":"data:application/octet-stream;base64,"
		}
	]
}
