{
	"asset":{
		"generator":"Khronos glTF Blender I/O v3.6.27",
		"version":"2.0"
	},
	"extensionsUsed":[
		"KHR_materials_transmission",
		"KHR_materials_specular",
		"KHR_materials_ior"
	],
	"scene":0,
	"scenes":[
		{
			"name":"Scene",
			"nodes":[
				0
			]
		}
	],
	"nodes":[
		{
			"mesh":0,
			"name":"Cube"
		}
	],
	"materials":[
		{
			"doubleSided":true,
			"extensions":{
				"KHR_materials_transmission":{
					"transmissionFactor":0.800000011920929
				},
				"KHR_materials_specular":{
					"specularColorFactor":[
						0.9125390090870199,
						0.9125390090870199,
						0.9125390090870199
					]
				},
				"KHR_materials_ior":{
					"ior":1.4500000476837158
				}
			},
			"name":"Material",
			"pbrMetallicRoughness":{
				"baseColorTexture":{
					"index":0
				},
				"metallicFactor":0
			}
		}
	],
	"meshes":[
		{
			"name":"Cube",
			"primitives":[
				{
					"attributes":{
						"POSITION":0,
						"NORMAL":1,
						"TEXCOORD_0":2
					},
					"indices":3,
					"material":0
				}
			]
		}
	],
	"textures":[
		{
			"sampler":0,
			"source":0
		}
	],
	"images":[
		{
			"bufferView":4,
			"mimeType":"image/png",
			"name":"cajotota"
		}
	],
	"accessors":[
		{
			"bufferView":0,
			"componentType":5126,
			"count":331,
			"max":[
				1.0157579183578491,
				1,
				1
			],
			"min":[
				-1.016027569770813,
				-1,
				-1
			],
			"type":"VEC3"
		},
		{
			"bufferView":1,
			"componentType":5126,
			"count":331,
			"type":"VEC3"
		},
		{
			"bufferView":2,
			"componentType":5126,
			"count":331,
			"type":"VEC2"
		},
		{
			"bufferView":3,
			"componentType":5123,
			"count":504,
			"type":"SCALAR"
		}
	],
	"bufferViews":[
		{
			"buffer":0,
			"byteLength":3972,
			"byteOffset":0,
			"target":34962
		},
		{
			"buffer":0,
			"byteLength":3972,
			"byteOffset":3972,
			"target":34962
		},
		{
			"buffer":0,
			"byteLength":2648,
			"byteOffset":7944,
			"target":34962
		},
		{
			"buffer":0,
			"byteLength":1008,
			"byteOffset":10592,
			"target":34963
		},
		{
			"buffer":0,
			"byteLength":159734,
			"byteOffset":11600
		}
	],
	"samplers":[
		{
			"magFilter":9728,
			"minFilter":9984
		}
	],
	"buffers":[
		{
			"byteLength":171336,
			"uri":"data:application/octet-stream;base64,"
		}
	]
}
