{
	"asset":{
		"generator":"Khronos glTF Blender I/O v3.6.27",
		"version":"2.0"
	},
	"extensionsUsed":[
		"KHR_materials_specular",
		"KHR_materials_ior"
	],
	"scene":0,
	"scenes":[
		{
			"name":"Scene",
			"nodes":[
				0,
				1,
				2,
				3,
				4,
				5,
				6,
				7,
				8,
				9,
				10,
				11,
				12,
				13,
				14
			]
		}
	],
	"nodes":[
		{
			"mesh":0,
			"name":"Cube_cell",
			"translation":[
				-10.672945022583008,
				0.03128385543823242,
				1.7778987884521484
			]
		},
		{
			"mesh":1,
			"name":"Cube_cell.001",
			"translation":[
				-17.519636154174805,
				0,
				14.154365539550781
			]
		},
		{
			"mesh":2,
			"name":"Cube_cell.002",
			"translation":[
				11.34501838684082,
				0.01881164312362671,
				-12.530656814575195
			]
		},
		{
			"mesh":3,
			"name":"Cube_cell.003",
			"translation":[
				10.005228042602539,
				0.4504473805427551,
				-15.612784385681152
			]
		},
		{
			"mesh":4,
			"name":"Cube_cell.004",
			"translation":[
				-12.633407592773438,
				0.13630551099777222,
				-9.843230247497559
			]
		},
		{
			"mesh":5,
			"name":"Cube_cell.005",
			"translation":[
				14.79406452178955,
				0,
				12.009765625
			]
		},
		{
			"mesh":6,
			"name":"Cube_cell.006",
			"translation":[
				-20.690454483032227,
				0,
				-7.498692989349365
			]
		},
		{
			"mesh":7,
			"name":"Cube_cell.007",
			"translation":[
				13.759817123413086,
				-0.555918276309967,
				-15.340543746948242
			]
		},
		{
			"mesh":8,
			"name":"Cube_cell.008",
			"translation":[
				-23.478065490722656,
				0,
				14.596891403198242
			]
		},
		{
			"mesh":9,
			"name":"Cube_cell.009",
			"translation":[
				7.161477088928223,
				-0.04516810178756714,
				-3.103067398071289
			]
		},
		{
			"mesh":10,
			"name":"Cube_cell.010",
			"translation":[
				-2.2899818420410156,
				0,
				12.017026901245117
			]
		},
		{
			"mesh":11,
			"name":"Cube_cell.011",
			"translation":[
				21.541921615600586,
				0.0979965329170227,
				-0.3166971206665039
			]
		},
		{
			"mesh":12,
			"name":"Cube_cell.012",
			"translation":[
				-3.4822678565979004,
				-0.2837679088115692,
				-11.959281921386719
			]
		},
		{
			"mesh":13,
			"name":"Cube_cell.013",
			"translation":[
				-4.528995513916016,
				0.6542360186576843,
				-10.353565216064453
			]
		},
		{
			"mesh":14,
			"name":"Cube_cell.014",
			"translation":[
				-21.884540557861328,
				0,
				7.032275199890137
			]
		}
	],
	"materials":[
		{
			"doubleSided":true,
			"extensions":{
				"KHR_materials_specular":{
					"specularColorFactor":[
						2.371357614441398,
						2.371357614441398,
						2.371357614441398
					]
				},
				"KHR_materials_ior":{
					"ior":1.4500000476837158
				}
			},
			"name":"Material",
			"pbrMetallicRoughness":{
				"baseColorTexture":{
					"index":0
				},
				"metallicFactor":0,
				"roughnessFactor":0.20000000298023224
			}
		}
	],
	"meshes":[
		{
			"name":"Cube_cell.030",
			"primitives":[
				{
					"attributes":{
						"POSITION":0,
						"NORMAL":1,
						"TEXCOORD_0":2
					},
					"indices":3,
					"material":0
				}
			]
		},
		{
			"name":"Cube_cell.031",
			"primitives":[
				{
					"attributes":{
						"POSITION":4,
						"NORMAL":5,
						"TEXCOORD_0":6
					},
					"indices":7,
					"material":0
				}
			]
		},
		{
			"name":"Cube_cell.014",
			"primitives":[
				{
					"attributes":{
						"POSITION":8,
						"NORMAL":9,
						"TEXCOORD_0":10
					},
					"indices":11,
					"material":0
				}
			]
		},
		{
			"name":"Cube_cell.017",
			"primitives":[
				{
					"attributes":{
						"POSITION":12,
						"NORMAL":13,
						"TEXCOORD_0":14
					},
					"indices":15,
					"material":0
				}
			]
		},
		{
			"name":"Cube_cell.018",
			"primitives":[
				{
					"attributes":{
						"POSITION":16,
						"NORMAL":17,
						"TEXCOORD_0":18
					},
					"indices":19,
					"material":0
				}
			]
		},
		{
			"name":"Cube_cell.019",
			"primitives":[
				{
					"attributes":{
						"POSITION":20,
						"NORMAL":21,
						"TEXCOORD_0":22
					},
					"indices":23,
					"material":0
				}
			]
		},
		{
			"name":"Cube_cell.020",
			"primitives":[
				{
					"attributes":{
						"POSITION":24,
						"NORMAL":25,
						"TEXCOORD_0":26
					},
					"indices":27,
					"material":0
				}
			]
		},
		{
			"name":"Cube_cell.021",
			"primitives":[
				{
					"attributes":{
						"POSITION":28,
						"NORMAL":29,
						"TEXCOORD_0":30
					},
					"indices":31,
					"material":0
				}
			]
		},
		{
			"name":"Cube_cell.022",
			"primitives":[
				{
					"attributes":{
						"POSITION":32,
						"NORMAL":33,
						"TEXCOORD_0":34
					},
					"indices":35,
					"material":0
				}
			]
		},
		{
			"name":"Cube_cell.023",
			"primitives":[
				{
					"attributes":{
						"POSITION":36,
						"NORMAL":37,
						"TEXCOORD_0":38
					},
					"indices":39,
					"material":0
				}
			]
		},
		{
			"name":"Cube_cell.024",
			"primitives":[
				{
					"attributes":{
						"POSITION":40,
						"NORMAL":41,
						"TEXCOORD_0":42
					},
					"indices":43,
					"material":0
				}
			]
		},
		{
			"name":"Cube_cell.025",
			"primitives":[
				{
					"attributes":{
						"POSITION":44,
						"NORMAL":45,
						"TEXCOORD_0":46
					},
					"indices":47,
					"material":0
				}
			]
		},
		{
			"name":"Cube_cell.026",
			"primitives":[
				{
					"attributes":{
						"POSITION":48,
						"NORMAL":49,
						"TEXCOORD_0":50
					},
					"indices":51,
					"material":0
				}
			]
		},
		{
			"name":"Cube_cell.027",
			"primitives":[
				{
					"attributes":{
						"POSITION":52,
						"NORMAL":53,
						"TEXCOORD_0":54
					},
					"indices":55,
					"material":0
				}
			]
		},
		{
			"name":"Cube_cell.028",
			"primitives":[
				{
					"attributes":{
						"POSITION":56,
						"NORMAL":57,
						"TEXCOORD_0":58
					},
					"indices":59,
					"material":0
				}
			]
		}
	],
	"textures":[
		{
			"sampler":0,
			"source":0
		}
	],
	"images":[
		{
			"bufferView":4,
			"mimeType":"image/png",
			"name":"Pisote"
		}
	],
	"accessors":[
		{
			"bufferView":0,
			"componentType":5126,
			"count":50,
			"max":[
				11.810722351074219,
				0.9687161445617676,
				13.186739921569824
			],
			"min":[
				-8.078834533691406,
				-1.0312838554382324,
				-5.945138931274414
			],
			"type":"VEC3"
		},
		{
			"bufferView":1,
			"componentType":5126,
			"count":50,
			"type":"VEC3"
		},
		{
			"bufferView":2,
			"componentType":5126,
			"count":50,
			"type":"VEC2"
		},
		{
			"bufferView":3,
			"componentType":5123,
			"count":84,
			"type":"SCALAR"
		},
		{
			"bufferView":5,
			"componentType":5126,
			"count":30,
			"max":[
				5.100849628448486,
				1,
				2.5123002529144287
			],
			"min":[
				-4.594820022583008,
				-1,
				-4.1485700607299805
			],
			"type":"VEC3"
		},
		{
			"bufferView":6,
			"componentType":5126,
			"count":30,
			"type":"VEC3"
		},
		{
			"bufferView":7,
			"componentType":5126,
			"count":30,
			"type":"VEC2"
		},
		{
			"bufferView":8,
			"componentType":5123,
			"count":48,
			"type":"SCALAR"
		},
		{
			"bufferView":9,
			"componentType":5126,
			"count":50,
			"max":[
				13.65498161315918,
				0.9811883568763733,
				2.5931262969970703
			],
			"min":[
				-12.901617050170898,
				-1.0188117027282715,
				-2.0591790676116943
			],
			"type":"VEC3"
		},
		{
			"bufferView":10,
			"componentType":5126,
			"count":50,
			"type":"VEC3"
		},
		{
			"bufferView":11,
			"componentType":5126,
			"count":50,
			"type":"VEC2"
		},
		{
			"bufferView":12,
			"componentType":5123,
			"count":78,
			"type":"SCALAR"
		},
		{
			"bufferView":13,
			"componentType":5126,
			"count":32,
			"max":[
				14.994771957397461,
				0.5495526194572449,
				1.0811731815338135
			],
			"min":[
				-10.011476516723633,
				-0.4495335817337036,
				-1.0538816452026367
			],
			"type":"VEC3"
		},
		{
			"bufferView":14,
			"componentType":5126,
			"count":32,
			"type":"VEC3"
		},
		{
			"bufferView":15,
			"componentType":5126,
			"count":32,
			"type":"VEC2"
		},
		{
			"bufferView":16,
			"componentType":5123,
			"count":48,
			"type":"SCALAR"
		},
		{
			"bufferView":17,
			"componentType":5126,
			"count":34,
			"max":[
				3.3320205211639404,
				0.8636944890022278,
				5.694046974182129
			],
			"min":[
				-9.013437271118164,
				-1.136305570602417,
				-6.8234357833862305
			],
			"type":"VEC3"
		},
		{
			"bufferView":18,
			"componentType":5126,
			"count":34,
			"type":"VEC3"
		},
		{
			"bufferView":19,
			"componentType":5126,
			"count":34,
			"type":"VEC2"
		},
		{
			"bufferView":20,
			"componentType":5123,
			"count":54,
			"type":"SCALAR"
		},
		{
			"bufferView":21,
			"componentType":5126,
			"count":30,
			"max":[
				10.20593547821045,
				1,
				4.656899929046631
			],
			"min":[
				-8.584321022033691,
				-1,
				-7.380635738372803
			],
			"type":"VEC3"
		},
		{
			"bufferView":22,
			"componentType":5126,
			"count":30,
			"type":"VEC3"
		},
		{
			"bufferView":23,
			"componentType":5126,
			"count":30,
			"type":"VEC2"
		},
		{
			"bufferView":24,
			"componentType":5123,
			"count":48,
			"type":"SCALAR"
		},
		{
			"bufferView":25,
			"componentType":5126,
			"count":30,
			"max":[
				7.627121448516846,
				1,
				7.588138103485107
			],
			"min":[
				-4.309545040130615,
				-1,
				-9.167972564697266
			],
			"type":"VEC3"
		},
		{
			"bufferView":26,
			"componentType":5126,
			"count":30,
			"type":"VEC3"
		},
		{
			"bufferView":27,
			"componentType":5126,
			"count":30,
			"type":"VEC2"
		},
		{
			"bufferView":28,
			"componentType":5123,
			"count":48,
			"type":"SCALAR"
		},
		{
			"bufferView":29,
			"componentType":5126,
			"count":28,
			"max":[
				11.240182876586914,
				0.5553764700889587,
				1.2290613651275635
			],
			"min":[
				-13.795953750610352,
				-0.44408172369003296,
				-1.326122760772705
			],
			"type":"VEC3"
		},
		{
			"bufferView":30,
			"componentType":5126,
			"count":28,
			"type":"VEC3"
		},
		{
			"bufferView":31,
			"componentType":5126,
			"count":28,
			"type":"VEC2"
		},
		{
			"bufferView":32,
			"componentType":5123,
			"count":42,
			"type":"SCALAR"
		},
		{
			"bufferView":33,
			"componentType":5126,
			"count":24,
			"max":[
				1.6818426847457886,
				1,
				2.069775104522705
			],
			"min":[
				-1.5219348669052124,
				-1,
				-2.100043773651123
			],
			"type":"VEC3"
		},
		{
			"bufferView":34,
			"componentType":5126,
			"count":24,
			"type":"VEC3"
		},
		{
			"bufferView":35,
			"componentType":5126,
			"count":24,
			"type":"VEC2"
		},
		{
			"bufferView":36,
			"componentType":5123,
			"count":36,
			"type":"SCALAR"
		},
		{
			"bufferView":37,
			"componentType":5126,
			"count":48,
			"max":[
				17.838523864746094,
				1.045168161392212,
				10.433917045593262
			],
			"min":[
				-13.284662246704102,
				-0.9548318982124329,
				-7.792409896850586
			],
			"type":"VEC3"
		},
		{
			"bufferView":38,
			"componentType":5126,
			"count":48,
			"type":"VEC3"
		},
		{
			"bufferView":39,
			"componentType":5126,
			"count":48,
			"type":"VEC2"
		},
		{
			"bufferView":40,
			"componentType":5123,
			"count":84,
			"type":"SCALAR"
		},
		{
			"bufferView":41,
			"componentType":5126,
			"count":30,
			"max":[
				8.557741165161133,
				1,
				4.64963960647583
			],
			"min":[
				-10.246191024780273,
				-1,
				-7.469798564910889
			],
			"type":"VEC3"
		},
		{
			"bufferView":42,
			"componentType":5126,
			"count":30,
			"type":"VEC3"
		},
		{
			"bufferView":43,
			"componentType":5126,
			"count":30,
			"type":"VEC2"
		},
		{
			"bufferView":44,
			"componentType":5123,
			"count":48,
			"type":"SCALAR"
		},
		{
			"bufferView":45,
			"componentType":5126,
			"count":24,
			"max":[
				3.458078622817993,
				0.9020034670829773,
				15.218912124633789
			],
			"min":[
				-10.178199768066406,
				-1.097996473312378,
				-10.203279495239258
			],
			"type":"VEC3"
		},
		{
			"bufferView":46,
			"componentType":5126,
			"count":24,
			"type":"VEC3"
		},
		{
			"bufferView":47,
			"componentType":5126,
			"count":24,
			"type":"VEC2"
		},
		{
			"bufferView":48,
			"componentType":5123,
			"count":36,
			"type":"SCALAR"
		},
		{
			"bufferView":49,
			"componentType":5126,
			"count":48,
			"max":[
				3.50388765335083,
				0.5332087278366089,
				8.64884090423584
			],
			"min":[
				-5.966701507568359,
				-0.7162320613861084,
				-4.70738410949707
			],
			"type":"VEC3"
		},
		{
			"bufferView":50,
			"componentType":5126,
			"count":48,
			"type":"VEC3"
		},
		{
			"bufferView":51,
			"componentType":5126,
			"count":48,
			"type":"VEC2"
		},
		{
			"bufferView":52,
			"componentType":5123,
			"count":78,
			"type":"SCALAR"
		},
		{
			"bufferView":53,
			"componentType":5126,
			"count":40,
			"max":[
				4.535927772521973,
				0.3457639813423157,
				7.100578308105469
			],
			"min":[
				-5.069667816162109,
				-0.4037175476551056,
				-6.313100814819336
			],
			"type":"VEC3"
		},
		{
			"bufferView":54,
			"componentType":5126,
			"count":40,
			"type":"VEC3"
		},
		{
			"bufferView":55,
			"componentType":5126,
			"count":40,
			"type":"VEC2"
		},
		{
			"bufferView":56,
			"componentType":5123,
			"count":66,
			"type":"SCALAR"
		},
		{
			"bufferView":57,
			"componentType":5126,
			"count":30,
			"max":[
				3.1711385250091553,
				1,
				5.522856712341309
			],
			"min":[
				-3.115459680557251,
				-1,
				-7.121525764465332
			],
			"type":"VEC3"
		},
		{
			"bufferView":58,
			"componentType":5126,
			"count":30,
			"type":"VEC3"
		},
		{
			"bufferView":59,
			"componentType":5126,
			"count":30,
			"type":"VEC2"
		},
		{
			"bufferView":60,
			"componentType":5123,
			"count":48,
			"type":"SCALAR"
		}
	],
	"bufferViews":[
		{
			"buffer":0,
			"byteLength":600,
			"byteOffset":0,
			"target":34962
		},
		{
			"buffer":0,
			"byteLength":600,
			"byteOffset":600,
			"target":34962
		},
		{
			"buffer":0,
			"byteLength":400,
			"byteOffset":1200,
			"target":34962
		},
		{
			"buffer":0,
			"byteLength":168,
			"byteOffset":1600,
			"target":34963
		},
		{
			"buffer":0,
			"byteLength":128017,
			"byteOffset":1768
		},
		{
			"buffer":0,
			"byteLength":360,
			"byteOffset":129788,
			"target":34962
		},
		{
			"buffer":0,
			"byteLength":360,
			"byteOffset":130148,
			"target":34962
		},
		{
			"buffer":0,
			"byteLength":240,
			"byteOffset":130508,
			"target":34962
		},
		{
			"buffer":0,
			"byteLength":96,
			"byteOffset":130748,
			"target":34963
		},
		{
			"buffer":0,
			"byteLength":600,
			"byteOffset":130844,
			"target":34962
		},
		{
			"buffer":0,
			"byteLength":600,
			"byteOffset":131444,
			"target":34962
		},
		{
			"buffer":0,
			"byteLength":400,
			"byteOffset":132044,
			"target":34962
		},
		{
			"buffer":0,
			"byteLength":156,
			"byteOffset":132444,
			"target":34963
		},
		{
			"buffer":0,
			"byteLength":384,
			"byteOffset":132600,
			"target":34962
		},
		{
			"buffer":0,
			"byteLength":384,
			"byteOffset":132984,
			"target":34962
		},
		{
			"buffer":0,
			"byteLength":256,
			"byteOffset":133368,
			"target":34962
		},
		{
			"buffer":0,
			"byteLength":96,
			"byteOffset":133624,
			"target":34963
		},
		{
			"buffer":0,
			"byteLength":408,
			"byteOffset":133720,
			"target":34962
		},
		{
			"buffer":0,
			"byteLength":408,
			"byteOffset":134128,
			"target":34962
		},
		{
			"buffer":0,
			"byteLength":272,
			"byteOffset":134536,
			"target":34962
		},
		{
			"buffer":0,
			"byteLength":108,
			"byteOffset":134808,
			"target":34963
		},
		{
			"buffer":0,
			"byteLength":360,
			"byteOffset":134916,
			"target":34962
		},
		{
			"buffer":0,
			"byteLength":360,
			"byteOffset":135276,
			"target":34962
		},
		{
			"buffer":0,
			"byteLength":240,
			"byteOffset":135636,
			"target":34962
		},
		{
			"buffer":0,
			"byteLength":96,
			"byteOffset":135876,
			"target":34963
		},
		{
			"buffer":0,
			"byteLength":360,
			"byteOffset":135972,
			"target":34962
		},
		{
			"buffer":0,
			"byteLength":360,
			"byteOffset":136332,
			"target":34962
		},
		{
			"buffer":0,
			"byteLength":240,
			"byteOffset":136692,
			"target":34962
		},
		{
			"buffer":0,
			"byteLength":96,
			"byteOffset":136932,
			"target":34963
		},
		{
			"buffer":0,
			"byteLength":336,
			"byteOffset":137028,
			"target":34962
		},
		{
			"buffer":0,
			"byteLength":336,
			"byteOffset":137364,
			"target":34962
		},
		{
			"buffer":0,
			"byteLength":224,
			"byteOffset":137700,
			"target":34962
		},
		{
			"buffer":0,
			"byteLength":84,
			"byteOffset":137924,
			"target":34963
		},
		{
			"buffer":0,
			"byteLength":288,
			"byteOffset":138008,
			"target":34962
		},
		{
			"buffer":0,
			"byteLength":288,
			"byteOffset":138296,
			"target":34962
		},
		{
			"buffer":0,
			"byteLength":192,
			"byteOffset":138584,
			"target":34962
		},
		{
			"buffer":0,
			"byteLength":72,
			"byteOffset":138776,
			"target":34963
		},
		{
			"buffer":0,
			"byteLength":576,
			"byteOffset":138848,
			"target":34962
		},
		{
			"buffer":0,
			"byteLength":576,
			"byteOffset":139424,
			"target":34962
		},
		{
			"buffer":0,
			"byteLength":384,
			"byteOffset":140000,
			"target":34962
		},
		{
			"buffer":0,
			"byteLength":168,
			"byteOffset":140384,
			"target":34963
		},
		{
			"buffer":0,
			"byteLength":360,
			"byteOffset":140552,
			"target":34962
		},
		{
			"buffer":0,
			"byteLength":360,
			"byteOffset":140912,
			"target":34962
		},
		{
			"buffer":0,
			"byteLength":240,
			"byteOffset":141272,
			"target":34962
		},
		{
			"buffer":0,
			"byteLength":96,
			"byteOffset":141512,
			"target":34963
		},
		{
			"buffer":0,
			"byteLength":288,
			"byteOffset":141608,
			"target":34962
		},
		{
			"buffer":0,
			"byteLength":288,
			"byteOffset":141896,
			"target":34962
		},
		{
			"buffer":0,
			"byteLength":192,
			"byteOffset":142184,
			"target":34962
		},
		{
			"buffer":0,
			"byteLength":72,
			"byteOffset":142376,
			"target":34963
		},
		{
			"buffer":0,
			"byteLength":576,
			"byteOffset":142448,
			"target":34962
		},
		{
			"buffer":0,
			"byteLength":576,
			"byteOffset":143024,
			"target":34962
		},
		{
			"buffer":0,
			"byteLength":384,
			"byteOffset":143600,
			"target":34962
		},
		{
			"buffer":0,
			"byteLength":156,
			"byteOffset":143984,
			"target":34963
		},
		{
			"buffer":0,
			"byteLength":480,
			"byteOffset":144140,
			"target":34962
		},
		{
			"buffer":0,
			"byteLength":480,
			"byteOffset":144620,
			"target":34962
		},
		{
			"buffer":0,
			"byteLength":320,
			"byteOffset":145100,
			"target":34962
		},
		{
			"buffer":0,
			"byteLength":132,
			"byteOffset":145420,
			"target":34963
		},
		{
			"buffer":0,
			"byteLength":360,
			"byteOffset":145552,
			"target":34962
		},
		{
			"buffer":0,
			"byteLength":360,
			"byteOffset":145912,
			"target":34962
		},
		{
			"buffer":0,
			"byteLength":240,
			"byteOffset":146272,
			"target":34962
		},
		{
			"buffer":0,
			"byteLength":96,
			"byteOffset":146512,
			"target":34963
		}
	],
	"samplers":[
		{
			"magFilter":9728,
			"minFilter":9984
		}
	],
	"buffers":[
		{
			"byteLength":146608,
			"uri":"data:application/octet-stream;base64,"
		}
	]
}
