# Blender v3.6.2 OBJ File: 'id card.blend'
# www.blender.org
mtllib id card.mtl
o Cube
v 3.830394 -0.878416 -2.370108
v 3.830394 -0.750097 -2.263430
v 4.031579 -0.878416 -2.263430
v 3.830394 -1.000000 -2.263430
v 3.830394 -0.871681 -2.370108
v 4.031579 -0.871681 -2.263430
v 4.031579 -0.878416 2.263430
v 3.830394 -0.750097 2.263430
v 3.830394 -0.878416 2.370108
v 4.031579 -0.871681 2.263430
v 3.830394 -0.871681 2.370108
v 3.830394 -1.000000 2.263430
v -3.830394 -0.878416 -2.370108
v -4.031579 -0.878416 -2.263430
v -3.830394 -0.750097 -2.263430
v -4.031579 -0.871681 -2.263430
v -3.830394 -0.871681 -2.370108
v -3.830394 -1.000000 -2.263430
v -4.031579 -0.878416 2.263430
v -3.830394 -0.878416 2.370108
v -3.830394 -0.750097 2.263430
v -3.830394 -1.000000 2.263430
v -3.830394 -0.871681 2.370108
v -4.031579 -0.871681 2.263430
vt 0.472177 0.020985
vt 0.472177 0.820048
vt 0.000000 0.820048
vt 0.000000 0.020985
vt 0.999297 0.000000
vt 1.000000 0.000000
vt 1.000000 0.472177
vt 0.999297 0.472177
vt 0.997892 0.023050
vt 0.998595 0.023050
vt 0.998595 0.798488
vt 0.997892 0.798488
vt 0.944354 0.020985
vt 0.944354 0.820048
vt 0.472177 0.820048
vt 0.472177 0.020985
vt 0.999297 0.472177
vt 1.000000 0.472177
vt 1.000000 0.944354
vt 0.999297 0.944354
vt 0.944354 0.798488
vt 0.957739 0.795802
vt 0.944354 0.816166
vt 0.971123 0.020364
vt 0.957739 0.017678
vt 0.957739 0.000000
vt 0.971123 -0.000000
vt 0.984508 0.020364
vt 0.971123 0.023050
vt 0.984508 0.816166
vt 0.984508 0.793116
vt 0.997892 0.795802
vt 0.944354 0.023050
vt 0.944354 -0.000000
vt 0.957739 0.020364
vt 0.957739 0.816166
vt 0.957739 0.793116
vt 0.971123 0.795802
vt 0.971123 0.816166
vt 0.971123 0.798488
vt 0.984508 0.795802
vt 0.997892 0.020364
vt 0.984508 0.017678
vt 0.984508 0.000000
vt 0.000000 -0.000000
vt 0.472177 -0.000000
vt 0.999297 0.816166
vt 0.998595 0.816166
vt 0.998595 0.798488
vt 0.999297 0.798488
vt 0.998595 0.816166
vt 0.997892 0.816166
vt 0.997892 -0.000000
vt 0.998595 -0.000000
vt 0.999297 0.023050
vt 0.998595 0.023050
vt 0.998595 -0.000000
vt 0.999297 -0.000000
vt 0.472177 0.000000
vt 0.944354 0.000000
vt 0.944354 0.841033
vt 0.472177 0.841033
vt 0.472177 0.841033
vt 0.000000 0.841033
vn 0.0000 -1.0000 0.0000
vn 1.0000 0.0000 0.0000
vn 0.0000 0.0000 -1.0000
vn 0.0000 1.0000 0.0000
vn -1.0000 0.0000 0.0000
vn 0.3776 0.5920 -0.7121
vn 0.3776 -0.5920 -0.7121
vn 0.3776 0.5920 0.7121
vn 0.3776 -0.5920 0.7121
vn -0.3776 0.5920 -0.7121
vn -0.3776 -0.5920 -0.7121
vn -0.3776 0.5920 0.7121
vn -0.3776 -0.5920 0.7121
vn -0.5377 -0.8431 0.0000
vn 0.0000 -0.6393 -0.7690
vn -0.4685 0.0000 0.8835
vn 0.4685 0.0000 -0.8835
vn -0.4685 0.0000 -0.8835
vn 0.4685 0.0000 0.8835
vn 0.0000 0.6393 0.7690
vn 0.5377 0.8431 0.0000
vn 0.0000 -0.6393 0.7690
vn -0.5377 0.8431 0.0000
vn 0.0000 0.6393 -0.7690
vn 0.5377 -0.8431 0.0000
vn 0.0000 0.0000 1.0000
usemtl Material
s off
f 18/1/1 4/2/1 12/3/1 22/4/1
f 24/5/2 19/6/2 14/7/2 16/8/2
f 11/9/3 9/10/3 20/11/3 23/12/3
f 2/13/4 15/14/4 21/15/4 8/16/4
f 6/17/5 3/18/5 7/19/5 10/20/5
f 1/21/6 2/22/6 3/23/6
f 4/24/7 5/25/7 6/26/7
f 7/27/8 8/28/8 9/29/8
f 10/30/9 11/31/9 12/32/9
f 13/33/10 14/34/10 15/35/10
f 16/36/11 17/37/11 18/38/11
f 19/39/12 20/40/12 21/41/12
f 22/42/13 23/43/13 24/44/13
f 18/1/14 22/4/14 24/45/14 16/46/14
f 4/24/15 18/38/15 17/37/15 5/25/15
f 3/47/16 6/48/16 5/49/16 1/50/16
f 23/12/17 20/11/17 19/51/17 24/52/17
f 9/10/18 11/9/18 10/53/18 7/54/18
f 13/55/19 17/56/19 16/57/19 14/58/19
f 8/28/20 21/41/20 20/40/20 9/29/20
f 2/13/21 8/16/21 7/59/21 3/60/21
f 22/42/22 12/32/22 11/31/22 23/43/22
f 21/15/23 15/14/23 14/61/23 19/62/23
f 15/35/24 2/22/24 1/21/24 13/33/24
f 12/3/25 4/2/25 6/63/25 10/64/25
f 17/56/26 13/55/26 1/50/26 5/49/26
