# Blender v3.6.2 OBJ File: ''
# www.blender.org
mtllib Luz.mtl
o Cube
v -0.512251 2.233381 -1.281365
v -0.438365 2.633310 -1.000000
v -0.512251 2.233381 4.161876
v -0.438365 2.633310 3.880510
v -0.926114 2.233381 -1.281365
v -1.000000 2.633310 -1.000000
v -0.926114 2.233381 4.161876
v -1.000000 2.633310 3.880510
v -0.438365 2.233381 4.235762
v -1.000000 2.233381 4.235762
v -0.438365 2.233381 -1.355252
v -1.000000 2.233381 -1.355252
v -0.696583 3.698414 -0.690666
v -0.739825 2.637384 -0.703783
v -0.751620 3.698414 -0.713463
v -0.772921 2.637384 -0.753315
v -0.774417 3.698414 -0.768500
v -0.761299 2.637384 -0.811742
v -0.751620 3.698414 -0.823537
v -0.711767 2.637384 -0.844839
v -0.696583 3.698414 -0.846334
v -0.681398 2.637384 -0.844839
v -0.641546 3.698414 -0.823537
v -0.631866 2.637384 -0.811742
v -0.618749 3.698414 -0.768500
v -0.620244 2.637384 -0.753315
v -0.641546 3.698414 -0.713463
v -0.653340 2.637384 -0.703783
v -0.696583 3.698414 3.746004
v -0.739825 2.637384 3.732887
v -0.751620 3.698414 3.723207
v -0.772921 2.637384 3.683355
v -0.774417 3.698414 3.668170
v -0.761299 2.637384 3.624928
v -0.751620 3.698414 3.613133
v -0.711767 2.637384 3.591831
v -0.696583 3.698414 3.590336
v -0.681398 2.637384 3.591831
v -0.641546 3.698414 3.613133
v -0.631866 2.637384 3.624928
v -0.618749 3.698414 3.668170
v -0.620244 2.637384 3.683355
v -0.641546 3.698414 3.723207
v -0.653340 2.637384 3.732887
vt 0.657889 0.503304
vt 0.842111 0.503304
vt 0.842111 0.746696
vt 0.657889 0.746696
vt 0.375000 0.750000
vt 0.625000 0.750000
vt 0.625000 1.000000
vt 0.375000 1.000000
vt 0.375000 0.000000
vt 0.625000 0.000000
vt 0.625000 0.250000
vt 0.375000 0.250000
vt 0.125000 0.500000
vt 0.375000 0.500000
vt 0.125000 0.750000
vt 0.625000 0.500000
vt 0.875000 0.750000
vt 0.875000 0.500000
vt 0.750000 0.490000
vt 0.116663 0.449553
vt 0.383337 0.449553
vt 0.485388 0.296822
vt 0.875000 0.500000
vt 0.990000 0.250000
vt 0.449553 0.116663
vt 0.750000 0.500000
vt 0.919706 0.080294
vt 0.014612 0.296822
vt 0.050447 0.116663
vt 0.203178 0.014612
vt 0.296822 0.014612
vt 0.625000 0.500000
vt 0.750000 0.010000
vt 0.500000 0.500000
vt 0.580294 0.080294
vt 0.375000 0.500000
vt 0.510000 0.250000
vt 0.250000 0.500000
vt 0.580294 0.419706
vt 0.919706 0.419706
vt 0.125000 0.500000
vt 1.000000 0.500000
vt 0.750000 0.490000
vt 0.116663 0.449553
vt 0.383337 0.449553
vt 0.485388 0.296822
vt 0.875000 0.500000
vt 0.990000 0.250000
vt 0.449553 0.116663
vt 0.750000 0.500000
vt 0.919706 0.080294
vt 0.014612 0.296822
vt 0.050447 0.116663
vt 0.203178 0.014612
vt 0.296822 0.014612
vt 0.625000 0.500000
vt 0.750000 0.010000
vt 0.500000 0.500000
vt 0.580294 0.080294
vt 0.375000 0.500000
vt 0.510000 0.250000
vt 0.250000 0.500000
vt 0.580294 0.419706
vt 0.919706 0.419706
vt 0.125000 0.500000
vt 1.000000 0.500000
vn 0.0000 1.0000 0.0000
vn 0.0000 -0.6641 -0.7476
vn 1.0000 0.0000 0.0000
vn 0.0000 -1.0000 0.0000
vn -1.0000 -0.0000 0.0000
vn 0.0000 -0.6641 0.7476
vn 0.0000 0.0124 -0.9999
vn 0.8315 0.0042 -0.5556
vn 0.9239 -0.0042 -0.3827
vn 0.9808 0.0042 0.1951
vn 0.9239 -0.0042 0.3827
vn 0.5556 0.0042 0.8315
vn 0.3827 -0.0042 0.9239
vn 0.0000 0.0014 1.0000
vn -0.3827 -0.0042 0.9239
vn -0.5556 0.0042 0.8315
vn -0.9239 -0.0042 0.3827
vn -0.9808 0.0042 0.1951
vn -0.9239 -0.0042 -0.3827
vn -0.8315 0.0042 -0.5556
vn -0.3827 -0.0042 -0.9239
vn 0.3827 -0.0042 -0.9239
usemtl Material
s off
f 1/1/1 5/2/1 7/3/1 3/4/1
f 4/5/2 9/6/2 10/7/2 8/8/2
f 8/9/3 10/10/3 12/11/3 6/12/3
f 6/13/4 2/14/4 4/5/4 8/15/4
f 2/14/5 11/16/5 9/6/5 4/5/5
f 6/12/6 12/11/6 11/16/6 2/14/6
f 3/4/1 7/3/1 10/17/1 9/6/1
f 1/1/1 3/4/1 9/6/1 11/16/1
f 7/3/1 5/2/1 12/18/1 10/17/1
f 5/2/1 1/1/1 11/16/1 12/18/1
f 13/19/7 28/20/7 14/21/7
f 14/21/8 16/22/8 15/23/8
f 16/22/9 17/24/9 15/23/9
f 16/22/10 18/25/10 17/26/10
f 18/25/11 19/27/11 17/26/11
f 28/20/1 26/28/1 24/29/1 22/30/1 20/31/1 18/25/1 16/22/1 14/21/1
f 18/25/12 20/31/12 19/32/12
f 20/31/13 21/33/13 19/32/13
f 20/31/14 22/30/14 21/34/14
f 21/34/15 22/30/15 23/35/15
f 23/35/16 22/30/16 24/29/16
f 23/36/17 24/29/17 25/37/17
f 25/37/18 24/29/18 26/28/18
f 25/38/19 26/28/19 27/39/19
f 27/39/20 26/28/20 28/20/20
f 13/19/4 15/40/4 17/24/4 19/27/4 21/33/4 23/35/4 25/37/4 27/39/4
f 13/19/21 27/41/21 28/20/21
f 13/42/22 14/21/22 15/40/22
f 29/43/7 44/44/7 30/45/7
f 30/45/8 32/46/8 31/47/8
f 32/46/9 33/48/9 31/47/9
f 32/46/10 34/49/10 33/50/10
f 34/49/11 35/51/11 33/50/11
f 44/44/1 42/52/1 40/53/1 38/54/1 36/55/1 34/49/1 32/46/1 30/45/1
f 34/49/12 36/55/12 35/56/12
f 36/55/13 37/57/13 35/56/13
f 36/55/14 38/54/14 37/58/14
f 37/58/15 38/54/15 39/59/15
f 39/59/16 38/54/16 40/53/16
f 39/60/17 40/53/17 41/61/17
f 41/61/18 40/53/18 42/52/18
f 41/62/19 42/52/19 43/63/19
f 43/63/20 42/52/20 44/44/20
f 29/43/4 31/64/4 33/48/4 35/51/4 37/57/4 39/59/4 41/61/4 43/63/4
f 29/43/21 43/65/21 44/44/21
f 29/66/22 30/45/22 31/64/22
o Cube.001
v -0.923632 2.153805 4.127827
v -0.923632 2.296925 4.127827
v -0.923632 2.153805 -1.220108
v -0.923632 2.296925 -1.220108
v -0.491867 2.153805 4.127827
v -0.491867 2.296925 4.127827
v -0.491867 2.153805 -1.220108
v -0.491867 2.296925 -1.220108
vt 0.375000 0.000000
vt 0.625000 0.000000
vt 0.625000 0.250000
vt 0.375000 0.250000
vt 0.625000 0.500000
vt 0.375000 0.500000
vt 0.625000 0.750000
vt 0.375000 0.750000
vt 0.625000 1.000000
vt 0.375000 1.000000
vt 0.125000 0.500000
vt 0.125000 0.750000
vt 0.875000 0.500000
vt 0.875000 0.750000
vn -1.0000 0.0000 0.0000
vn 0.0000 0.0000 -1.0000
vn 1.0000 0.0000 0.0000
vn 0.0000 0.0000 1.0000
vn 0.0000 -1.0000 0.0000
vn 0.0000 1.0000 0.0000
usemtl Material.001
s off
f 45/67/23 46/68/23 48/69/23 47/70/23
f 47/70/24 48/69/24 52/71/24 51/72/24
f 51/72/25 52/71/25 50/73/25 49/74/25
f 49/74/26 50/73/26 46/75/26 45/76/26
f 47/77/27 51/72/27 49/74/27 45/78/27
f 52/71/28 48/79/28 46/80/28 50/73/28
