{
	"asset":{
		"generator":"Khronos glTF Blender I/O v3.6.27",
		"version":"2.0"
	},
	"extensionsUsed":[
		"KHR_materials_clearcoat",
		"KHR_materials_specular",
		"KHR_materials_ior"
	],
	"scene":0,
	"scenes":[
		{
			"name":"Scene",
			"nodes":[
				0
			]
		}
	],
	"nodes":[
		{
			"mesh":0,
			"name":"Sphere"
		}
	],
	"materials":[
		{
			"doubleSided":true,
			"extensions":{
				"KHR_materials_clearcoat":{
					"clearcoatFactor":1,
					"clearcoatRoughnessFactor":0.029999999329447746
				},
				"KHR_materials_specular":{
					"specularColorFactor":[
						0.1493769277180997,
						0.1493769277180997,
						0.1493769277180997
					]
				},
				"KHR_materials_ior":{
					"ior":1.4500000476837158
				}
			},
			"name":"Material.001",
			"pbrMetallicRoughness":{
				"baseColorTexture":{
					"index":0
				},
				"metallicFactor":0,
				"roughnessFactor":0
			}
		}
	],
	"meshes":[
		{
			"name":"Sphere",
			"primitives":[
				{
					"attributes":{
						"POSITION":0,
						"NORMAL":1,
						"TEXCOORD_0":2
					},
					"indices":3,
					"material":0
				}
			]
		}
	],
	"textures":[
		{
			"sampler":0,
			"source":0
		}
	],
	"images":[
		{
			"bufferView":4,
			"mimeType":"image/png",
			"name":"Matraz 3"
		}
	],
	"accessors":[
		{
			"bufferView":0,
			"componentType":5126,
			"count":640,
			"max":[
				0.9807851314544678,
				3.255146026611328,
				0.9807849526405334
			],
			"min":[
				-0.9807848334312439,
				-1,
				-0.9807852506637573
			],
			"type":"VEC3"
		},
		{
			"bufferView":1,
			"componentType":5126,
			"count":640,
			"type":"VEC3"
		},
		{
			"bufferView":2,
			"componentType":5126,
			"count":640,
			"type":"VEC2"
		},
		{
			"bufferView":3,
			"componentType":5123,
			"count":900,
			"type":"SCALAR"
		}
	],
	"bufferViews":[
		{
			"buffer":0,
			"byteLength":7680,
			"byteOffset":0,
			"target":34962
		},
		{
			"buffer":0,
			"byteLength":7680,
			"byteOffset":7680,
			"target":34962
		},
		{
			"buffer":0,
			"byteLength":5120,
			"byteOffset":15360,
			"target":34962
		},
		{
			"buffer":0,
			"byteLength":1800,
			"byteOffset":20480,
			"target":34963
		},
		{
			"buffer":0,
			"byteLength":174081,
			"byteOffset":22280
		}
	],
	"samplers":[
		{
			"magFilter":9728,
			"minFilter":9984
		}
	],
	"buffers":[
		{
			"byteLength":196364,
			"uri":"data:application/octet-stream;base64,"
		}
	]
}
