{
	"asset":{
		"generator":"Khronos glTF Blender I/O v3.6.27",
		"version":"2.0"
	},
	"extensionsUsed":[
		"KHR_materials_specular",
		"KHR_materials_ior"
	],
	"scene":0,
	"scenes":[
		{
			"name":"Scene",
			"nodes":[
				0
			]
		}
	],
	"nodes":[
		{
			"mesh":0,
			"name":"Cube"
		}
	],
	"materials":[
		{
			"doubleSided":true,
			"extensions":{
				"KHR_materials_specular":{
					"specularColorFactor":[
						2.371357614441398,
						2.371357614441398,
						2.371357614441398
					]
				},
				"KHR_materials_ior":{
					"ior":1.4500000476837158
				}
			},
			"name":"Material",
			"pbrMetallicRoughness":{
				"baseColorTexture":{
					"index":0
				},
				"metallicFactor":0.699999988079071,
				"roughnessFactor":0.25
			}
		}
	],
	"meshes":[
		{
			"name":"Cube",
			"primitives":[
				{
					"attributes":{
						"POSITION":0,
						"NORMAL":1,
						"TEXCOORD_0":2
					},
					"indices":3,
					"material":0
				}
			]
		}
	],
	"textures":[
		{
			"sampler":0,
			"source":0
		}
	],
	"images":[
		{
			"bufferView":4,
			"mimeType":"image/png",
			"name":"MetalCrate"
		}
	],
	"accessors":[
		{
			"bufferView":0,
			"componentType":5126,
			"count":240,
			"max":[
				1,
				1,
				1
			],
			"min":[
				-1,
				-1,
				-1
			],
			"type":"VEC3"
		},
		{
			"bufferView":1,
			"componentType":5126,
			"count":240,
			"type":"VEC3"
		},
		{
			"bufferView":2,
			"componentType":5126,
			"count":240,
			"type":"VEC2"
		},
		{
			"bufferView":3,
			"componentType":5123,
			"count":372,
			"type":"SCALAR"
		}
	],
	"bufferViews":[
		{
			"buffer":0,
			"byteLength":2880,
			"byteOffset":0,
			"target":34962
		},
		{
			"buffer":0,
			"byteLength":2880,
			"byteOffset":2880,
			"target":34962
		},
		{
			"buffer":0,
			"byteLength":1920,
			"byteOffset":5760,
			"target":34962
		},
		{
			"buffer":0,
			"byteLength":744,
			"byteOffset":7680,
			"target":34963
		},
		{
			"buffer":0,
			"byteLength":159824,
			"byteOffset":8424
		}
	],
	"samplers":[
		{
			"magFilter":9728,
			"minFilter":9984
		}
	],
	"buffers":[
		{
			"byteLength":168248,
			"uri":"data:application/octet-stream;base64,"
		}
	]
}
