{
	"asset":{
		"generator":"Khronos glTF Blender I/O v3.6.27",
		"version":"2.0"
	},
	"scene":0,
	"scenes":[
		{
			"name":"Scene",
			"nodes":[
				0,
				1,
				2,
				3,
				4,
				5,
				6,
				7,
				8,
				9,
				10
			]
		}
	],
	"nodes":[
		{
			"mesh":0,
			"name":"Cube_cell",
			"scale":[
				0.48790985345840454,
				0.48790985345840454,
				1.0279489755630493
			],
			"translation":[
				-8.380913734436035,
				4.132915496826172,
				-0.001212581992149353
			]
		},
		{
			"mesh":1,
			"name":"Cube_cell.001",
			"scale":[
				0.48790985345840454,
				0.48790985345840454,
				1.0279489755630493
			],
			"translation":[
				10.179808616638184,
				-3.694115400314331,
				0.08480586111545563
			]
		},
		{
			"mesh":2,
			"name":"Cube_cell.002",
			"scale":[
				0.48790985345840454,
				0.48790985345840454,
				1.0279489755630493
			],
			"translation":[
				11.710555076599121,
				5.219378471374512,
				-0.001212581992149353
			]
		},
		{
			"mesh":3,
			"name":"Cube_cell.004",
			"scale":[
				0.48790985345840454,
				0.48790985345840454,
				1.0279489755630493
			],
			"translation":[
				10.301551818847656,
				-2.203139066696167,
				0.40334832668304443
			]
		},
		{
			"mesh":4,
			"name":"Cube_cell.005",
			"scale":[
				0.48790985345840454,
				0.48790985345840454,
				1.0279489755630493
			],
			"translation":[
				8.621106147766113,
				7.408121109008789,
				-0.001212581992149353
			]
		},
		{
			"mesh":5,
			"name":"Cube_cell.006",
			"scale":[
				0.48790985345840454,
				0.48790985345840454,
				1.0279489755630493
			],
			"translation":[
				-6.403093338012695,
				7.9618635177612305,
				-0.001212581992149353
			]
		},
		{
			"mesh":6,
			"name":"Cube_cell.009",
			"scale":[
				0.48790985345840454,
				0.48790985345840454,
				1.0279489755630493
			],
			"translation":[
				10.67449951171875,
				-5.309479713439941,
				-0.001212581992149353
			]
		},
		{
			"mesh":7,
			"name":"Cube_cell.010",
			"scale":[
				0.48790985345840454,
				0.48790985345840454,
				1.0279489755630493
			],
			"translation":[
				2.1497530937194824,
				8.389126777648926,
				-0.001212581992149353
			]
		},
		{
			"mesh":8,
			"name":"Cube_cell.012",
			"scale":[
				0.48790985345840454,
				0.48790985345840454,
				1.0279489755630493
			],
			"translation":[
				-9.745343208312988,
				-2.024170160293579,
				-0.001212581992149353
			]
		},
		{
			"mesh":9,
			"name":"Cube_cell.013",
			"scale":[
				0.48790985345840454,
				0.48790985345840454,
				1.0279489755630493
			],
			"translation":[
				-2.654309034347534,
				6.193340301513672,
				-0.001212581992149353
			]
		},
		{
			"mesh":10,
			"name":"Cube_cell.014",
			"scale":[
				0.48790985345840454,
				0.48790985345840454,
				1.0279489755630493
			],
			"translation":[
				-10.006834030151367,
				7.437961578369141,
				-0.001212581992149353
			]
		}
	],
	"materials":[
		{
			"doubleSided":true,
			"name":"Material.003",
			"pbrMetallicRoughness":{
				"baseColorTexture":{
					"index":0
				},
				"metallicFactor":0,
				"roughnessFactor":0.5
			}
		}
	],
	"meshes":[
		{
			"name":"Cube_cell.015",
			"primitives":[
				{
					"attributes":{
						"POSITION":0,
						"NORMAL":1,
						"TEXCOORD_0":2
					},
					"indices":3,
					"material":0
				}
			]
		},
		{
			"name":"Cube_cell.016",
			"primitives":[
				{
					"attributes":{
						"POSITION":4,
						"NORMAL":5,
						"TEXCOORD_0":6
					},
					"indices":7,
					"material":0
				}
			]
		},
		{
			"name":"Cube_cell.001",
			"primitives":[
				{
					"attributes":{
						"POSITION":8,
						"NORMAL":9,
						"TEXCOORD_0":10
					},
					"indices":11,
					"material":0
				}
			]
		},
		{
			"name":"Cube_cell.003",
			"primitives":[
				{
					"attributes":{
						"POSITION":12,
						"NORMAL":13,
						"TEXCOORD_0":14
					},
					"indices":15,
					"material":0
				}
			]
		},
		{
			"name":"Cube_cell.004",
			"primitives":[
				{
					"attributes":{
						"POSITION":16,
						"NORMAL":17,
						"TEXCOORD_0":18
					},
					"indices":19,
					"material":0
				}
			]
		},
		{
			"name":"Cube_cell.005",
			"primitives":[
				{
					"attributes":{
						"POSITION":20,
						"NORMAL":21,
						"TEXCOORD_0":22
					},
					"indices":23,
					"material":0
				}
			]
		},
		{
			"name":"Cube_cell.008",
			"primitives":[
				{
					"attributes":{
						"POSITION":24,
						"NORMAL":25,
						"TEXCOORD_0":26
					},
					"indices":27,
					"material":0
				}
			]
		},
		{
			"name":"Cube_cell.009",
			"primitives":[
				{
					"attributes":{
						"POSITION":28,
						"NORMAL":29,
						"TEXCOORD_0":30
					},
					"indices":31,
					"material":0
				}
			]
		},
		{
			"name":"Cube_cell.011",
			"primitives":[
				{
					"attributes":{
						"POSITION":32,
						"NORMAL":33,
						"TEXCOORD_0":34
					},
					"indices":35,
					"material":0
				}
			]
		},
		{
			"name":"Cube_cell.012",
			"primitives":[
				{
					"attributes":{
						"POSITION":36,
						"NORMAL":37,
						"TEXCOORD_0":38
					},
					"indices":39,
					"material":0
				}
			]
		},
		{
			"name":"Cube_cell.013",
			"primitives":[
				{
					"attributes":{
						"POSITION":40,
						"NORMAL":41,
						"TEXCOORD_0":42
					},
					"indices":43,
					"material":0
				}
			]
		}
	],
	"textures":[
		{
			"sampler":0,
			"source":0
		}
	],
	"images":[
		{
			"bufferView":4,
			"mimeType":"image/png",
			"name":"Texture-wall"
		}
	],
	"accessors":[
		{
			"bufferView":0,
			"componentType":5126,
			"count":44,
			"max":[
				7.864627361297607,
				9.002573013305664,
				1
			],
			"min":[
				-6.253561973571777,
				-5.956751823425293,
				-1
			],
			"type":"VEC3"
		},
		{
			"bufferView":1,
			"componentType":5126,
			"count":44,
			"type":"VEC3"
		},
		{
			"bufferView":2,
			"componentType":5126,
			"count":44,
			"type":"VEC2"
		},
		{
			"bufferView":3,
			"componentType":5123,
			"count":60,
			"type":"SCALAR"
		},
		{
			"bufferView":5,
			"componentType":5126,
			"count":42,
			"max":[
				5.705144882202148,
				1.3931468725204468,
				0.9163203239440918
			],
			"min":[
				-4.434812545776367,
				-2.5219509601593018,
				-1.0836796760559082
			],
			"type":"VEC3"
		},
		{
			"bufferView":6,
			"componentType":5126,
			"count":42,
			"type":"VEC3"
		},
		{
			"bufferView":7,
			"componentType":5126,
			"count":42,
			"type":"VEC2"
		},
		{
			"bufferView":8,
			"componentType":5123,
			"count":54,
			"type":"SCALAR"
		},
		{
			"bufferView":9,
			"componentType":5126,
			"count":22,
			"max":[
				2.5677900314331055,
				6.552868843078613,
				1
			],
			"min":[
				-5.135901927947998,
				-6.553286552429199,
				-1
			],
			"type":"VEC3"
		},
		{
			"bufferView":10,
			"componentType":5126,
			"count":22,
			"type":"VEC3"
		},
		{
			"bufferView":11,
			"componentType":5126,
			"count":22,
			"type":"VEC2"
		},
		{
			"bufferView":12,
			"componentType":5123,
			"count":24,
			"type":"SCALAR"
		},
		{
			"bufferView":13,
			"componentType":5126,
			"count":36,
			"max":[
				5.455621242523193,
				6.765771865844727,
				0.6064387559890747
			],
			"min":[
				-4.646670818328857,
				-1.6611112356185913,
				-1.3935612440109253
			],
			"type":"VEC3"
		},
		{
			"bufferView":14,
			"componentType":5126,
			"count":36,
			"type":"VEC3"
		},
		{
			"bufferView":15,
			"componentType":5126,
			"count":36,
			"type":"VEC2"
		},
		{
			"bufferView":16,
			"componentType":5123,
			"count":48,
			"type":"SCALAR"
		},
		{
			"bufferView":17,
			"componentType":5126,
			"count":44,
			"max":[
				8.899795532226562,
				3.0141305923461914,
				1
			],
			"min":[
				-6.751296043395996,
				-4.6187214851379395,
				-1
			],
			"type":"VEC3"
		},
		{
			"bufferView":18,
			"componentType":5126,
			"count":44,
			"type":"VEC3"
		},
		{
			"bufferView":19,
			"componentType":5126,
			"count":44,
			"type":"VEC2"
		},
		{
			"bufferView":20,
			"componentType":5123,
			"count":60,
			"type":"SCALAR"
		},
		{
			"bufferView":21,
			"componentType":5126,
			"count":30,
			"max":[
				6.442333698272705,
				1.8792022466659546,
				1
			],
			"min":[
				-4.7409844398498535,
				-4.894459247589111,
				-1
			],
			"type":"VEC3"
		},
		{
			"bufferView":22,
			"componentType":5126,
			"count":30,
			"type":"VEC3"
		},
		{
			"bufferView":23,
			"componentType":5126,
			"count":30,
			"type":"VEC2"
		},
		{
			"bufferView":24,
			"componentType":5123,
			"count":36,
			"type":"SCALAR"
		},
		{
			"bufferView":25,
			"componentType":5126,
			"count":28,
			"max":[
				4.691245079040527,
				1.0540566444396973,
				1
			],
			"min":[
				-4.70469856262207,
				-0.9203986525535583,
				-1
			],
			"type":"VEC3"
		},
		{
			"bufferView":26,
			"componentType":5126,
			"count":28,
			"type":"VEC3"
		},
		{
			"bufferView":27,
			"componentType":5126,
			"count":28,
			"type":"VEC2"
		},
		{
			"bufferView":28,
			"componentType":5123,
			"count":36,
			"type":"SCALAR"
		},
		{
			"bufferView":29,
			"componentType":5126,
			"count":30,
			"max":[
				6.617124557495117,
				1.00350022315979,
				1
			],
			"min":[
				-7.326123237609863,
				-1.270282506942749,
				-1
			],
			"type":"VEC3"
		},
		{
			"bufferView":30,
			"componentType":5126,
			"count":30,
			"type":"VEC3"
		},
		{
			"bufferView":31,
			"componentType":5126,
			"count":30,
			"type":"VEC2"
		},
		{
			"bufferView":32,
			"componentType":5123,
			"count":36,
			"type":"SCALAR"
		},
		{
			"bufferView":33,
			"componentType":5126,
			"count":28,
			"max":[
				5.604343414306641,
				8.6469144821167,
				1
			],
			"min":[
				-3.4570846557617188,
				-7.653834819793701,
				-1
			],
			"type":"VEC3"
		},
		{
			"bufferView":34,
			"componentType":5126,
			"count":28,
			"type":"VEC3"
		},
		{
			"bufferView":35,
			"componentType":5126,
			"count":28,
			"type":"VEC2"
		},
		{
			"bufferView":36,
			"componentType":5123,
			"count":36,
			"type":"SCALAR"
		},
		{
			"bufferView":37,
			"componentType":5126,
			"count":46,
			"max":[
				3.8838841915130615,
				5.503893852233887,
				1
			],
			"min":[
				-5.304134368896484,
				-8.482404708862305,
				-1
			],
			"type":"VEC3"
		},
		{
			"bufferView":38,
			"componentType":5126,
			"count":46,
			"type":"VEC3"
		},
		{
			"bufferView":39,
			"componentType":5126,
			"count":46,
			"type":"VEC2"
		},
		{
			"bufferView":40,
			"componentType":5123,
			"count":60,
			"type":"SCALAR"
		},
		{
			"bufferView":41,
			"componentType":5126,
			"count":28,
			"max":[
				3.1391959190368652,
				2.952970027923584,
				1
			],
			"min":[
				-2.9211440086364746,
				-8.002962112426758,
				-1
			],
			"type":"VEC3"
		},
		{
			"bufferView":42,
			"componentType":5126,
			"count":28,
			"type":"VEC3"
		},
		{
			"bufferView":43,
			"componentType":5126,
			"count":28,
			"type":"VEC2"
		},
		{
			"bufferView":44,
			"componentType":5123,
			"count":36,
			"type":"SCALAR"
		}
	],
	"bufferViews":[
		{
			"buffer":0,
			"byteLength":528,
			"byteOffset":0,
			"target":34962
		},
		{
			"buffer":0,
			"byteLength":528,
			"byteOffset":528,
			"target":34962
		},
		{
			"buffer":0,
			"byteLength":352,
			"byteOffset":1056,
			"target":34962
		},
		{
			"buffer":0,
			"byteLength":120,
			"byteOffset":1408,
			"target":34963
		},
		{
			"buffer":0,
			"byteLength":48008,
			"byteOffset":1528
		},
		{
			"buffer":0,
			"byteLength":504,
			"byteOffset":49536,
			"target":34962
		},
		{
			"buffer":0,
			"byteLength":504,
			"byteOffset":50040,
			"target":34962
		},
		{
			"buffer":0,
			"byteLength":336,
			"byteOffset":50544,
			"target":34962
		},
		{
			"buffer":0,
			"byteLength":108,
			"byteOffset":50880,
			"target":34963
		},
		{
			"buffer":0,
			"byteLength":264,
			"byteOffset":50988,
			"target":34962
		},
		{
			"buffer":0,
			"byteLength":264,
			"byteOffset":51252,
			"target":34962
		},
		{
			"buffer":0,
			"byteLength":176,
			"byteOffset":51516,
			"target":34962
		},
		{
			"buffer":0,
			"byteLength":48,
			"byteOffset":51692,
			"target":34963
		},
		{
			"buffer":0,
			"byteLength":432,
			"byteOffset":51740,
			"target":34962
		},
		{
			"buffer":0,
			"byteLength":432,
			"byteOffset":52172,
			"target":34962
		},
		{
			"buffer":0,
			"byteLength":288,
			"byteOffset":52604,
			"target":34962
		},
		{
			"buffer":0,
			"byteLength":96,
			"byteOffset":52892,
			"target":34963
		},
		{
			"buffer":0,
			"byteLength":528,
			"byteOffset":52988,
			"target":34962
		},
		{
			"buffer":0,
			"byteLength":528,
			"byteOffset":53516,
			"target":34962
		},
		{
			"buffer":0,
			"byteLength":352,
			"byteOffset":54044,
			"target":34962
		},
		{
			"buffer":0,
			"byteLength":120,
			"byteOffset":54396,
			"target":34963
		},
		{
			"buffer":0,
			"byteLength":360,
			"byteOffset":54516,
			"target":34962
		},
		{
			"buffer":0,
			"byteLength":360,
			"byteOffset":54876,
			"target":34962
		},
		{
			"buffer":0,
			"byteLength":240,
			"byteOffset":55236,
			"target":34962
		},
		{
			"buffer":0,
			"byteLength":72,
			"byteOffset":55476,
			"target":34963
		},
		{
			"buffer":0,
			"byteLength":336,
			"byteOffset":55548,
			"target":34962
		},
		{
			"buffer":0,
			"byteLength":336,
			"byteOffset":55884,
			"target":34962
		},
		{
			"buffer":0,
			"byteLength":224,
			"byteOffset":56220,
			"target":34962
		},
		{
			"buffer":0,
			"byteLength":72,
			"byteOffset":56444,
			"target":34963
		},
		{
			"buffer":0,
			"byteLength":360,
			"byteOffset":56516,
			"target":34962
		},
		{
			"buffer":0,
			"byteLength":360,
			"byteOffset":56876,
			"target":34962
		},
		{
			"buffer":0,
			"byteLength":240,
			"byteOffset":57236,
			"target":34962
		},
		{
			"buffer":0,
			"byteLength":72,
			"byteOffset":57476,
			"target":34963
		},
		{
			"buffer":0,
			"byteLength":336,
			"byteOffset":57548,
			"target":34962
		},
		{
			"buffer":0,
			"byteLength":336,
			"byteOffset":57884,
			"target":34962
		},
		{
			"buffer":0,
			"byteLength":224,
			"byteOffset":58220,
			"target":34962
		},
		{
			"buffer":0,
			"byteLength":72,
			"byteOffset":58444,
			"target":34963
		},
		{
			"buffer":0,
			"byteLength":552,
			"byteOffset":58516,
			"target":34962
		},
		{
			"buffer":0,
			"byteLength":552,
			"byteOffset":59068,
			"target":34962
		},
		{
			"buffer":0,
			"byteLength":368,
			"byteOffset":59620,
			"target":34962
		},
		{
			"buffer":0,
			"byteLength":120,
			"byteOffset":59988,
			"target":34963
		},
		{
			"buffer":0,
			"byteLength":336,
			"byteOffset":60108,
			"target":34962
		},
		{
			"buffer":0,
			"byteLength":336,
			"byteOffset":60444,
			"target":34962
		},
		{
			"buffer":0,
			"byteLength":224,
			"byteOffset":60780,
			"target":34962
		},
		{
			"buffer":0,
			"byteLength":72,
			"byteOffset":61004,
			"target":34963
		}
	],
	"samplers":[
		{
			"magFilter":9728,
			"minFilter":9984
		}
	],
	"buffers":[
		{
			"byteLength":61076,
			"uri":"data:application/octet-stream;base64,"
		}
	]
}
