{
	"asset":{
		"generator":"Khronos glTF Blender I/O v3.6.27",
		"version":"2.0"
	},
	"scene":0,
	"scenes":[
		{
			"name":"Scene",
			"nodes":[
				0,
				1,
				2,
				3,
				4,
				5,
				6,
				7,
				8,
				9,
				10,
				11,
				12,
				13,
				14
			]
		}
	],
	"nodes":[
		{
			"mesh":0,
			"name":"Cube_cell",
			"translation":[
				-18.746437072753906,
				5.273143768310547,
				0
			]
		},
		{
			"mesh":1,
			"name":"Cube_cell.001",
			"translation":[
				19.29485511779785,
				-10.768816947937012,
				0.0836796760559082
			]
		},
		{
			"mesh":2,
			"name":"Cube_cell.002",
			"translation":[
				22.432209014892578,
				7.499913215637207,
				0
			]
		},
		{
			"mesh":3,
			"name":"Cube_cell.003",
			"translation":[
				15.992280960083008,
				-1.1886885166168213,
				0.12005221843719482
			]
		},
		{
			"mesh":4,
			"name":"Cube_cell.004",
			"translation":[
				19.54437828063965,
				-7.712972640991211,
				0.3935612738132477
			]
		},
		{
			"mesh":5,
			"name":"Cube_cell.005",
			"translation":[
				16.100204467773438,
				11.985869407653809,
				0
			]
		},
		{
			"mesh":6,
			"name":"Cube_cell.006",
			"translation":[
				-14.692774772644043,
				13.120798110961914,
				0
			]
		},
		{
			"mesh":7,
			"name":"Cube_cell.007",
			"translation":[
				-9.291604042053223,
				-4.576919078826904,
				0
			]
		},
		{
			"mesh":8,
			"name":"Cube_cell.008",
			"translation":[
				3.8609442710876465,
				5.330132484436035,
				0.07692313194274902
			]
		},
		{
			"mesh":9,
			"name":"Cube_cell.009",
			"translation":[
				20.308753967285156,
				-14.079601287841797,
				0
			]
		},
		{
			"mesh":10,
			"name":"Cube_cell.010",
			"translation":[
				2.836785078048706,
				13.996500015258789,
				0
			]
		},
		{
			"mesh":11,
			"name":"Cube_cell.011",
			"translation":[
				8.677627563476562,
				-9.39082145690918,
				0.1377032995223999
			]
		},
		{
			"mesh":12,
			"name":"Cube_cell.012",
			"translation":[
				-21.54291534423828,
				-7.346165180206299,
				0
			]
		},
		{
			"mesh":13,
			"name":"Cube_cell.013",
			"translation":[
				-7.00942325592041,
				9.496106147766113,
				0
			]
		},
		{
			"mesh":14,
			"name":"Cube_cell.014",
			"translation":[
				-22.078855514526367,
				12.047029495239258,
				0
			]
		}
	],
	"materials":[
		{
			"doubleSided":true,
			"name":"Material",
			"pbrMetallicRoughness":{
				"baseColorTexture":{
					"index":0
				},
				"metallicFactor":0,
				"roughnessFactor":0.5
			}
		}
	],
	"meshes":[
		{
			"name":"Cube_cell.015",
			"primitives":[
				{
					"attributes":{
						"POSITION":0,
						"NORMAL":1,
						"TEXCOORD_0":2
					},
					"indices":3,
					"material":0
				}
			]
		},
		{
			"name":"Cube_cell.016",
			"primitives":[
				{
					"attributes":{
						"POSITION":4,
						"NORMAL":5,
						"TEXCOORD_0":6
					},
					"indices":7,
					"material":0
				}
			]
		},
		{
			"name":"Cube_cell.001",
			"primitives":[
				{
					"attributes":{
						"POSITION":8,
						"NORMAL":9,
						"TEXCOORD_0":10
					},
					"indices":11,
					"material":0
				}
			]
		},
		{
			"name":"Cube_cell.002",
			"primitives":[
				{
					"attributes":{
						"POSITION":12,
						"NORMAL":13,
						"TEXCOORD_0":14
					},
					"indices":15,
					"material":0
				}
			]
		},
		{
			"name":"Cube_cell.003",
			"primitives":[
				{
					"attributes":{
						"POSITION":16,
						"NORMAL":17,
						"TEXCOORD_0":18
					},
					"indices":19,
					"material":0
				}
			]
		},
		{
			"name":"Cube_cell.004",
			"primitives":[
				{
					"attributes":{
						"POSITION":20,
						"NORMAL":21,
						"TEXCOORD_0":22
					},
					"indices":23,
					"material":0
				}
			]
		},
		{
			"name":"Cube_cell.005",
			"primitives":[
				{
					"attributes":{
						"POSITION":24,
						"NORMAL":25,
						"TEXCOORD_0":26
					},
					"indices":27,
					"material":0
				}
			]
		},
		{
			"name":"Cube_cell.006",
			"primitives":[
				{
					"attributes":{
						"POSITION":28,
						"NORMAL":29,
						"TEXCOORD_0":30
					},
					"indices":31,
					"material":0
				}
			]
		},
		{
			"name":"Cube_cell.007",
			"primitives":[
				{
					"attributes":{
						"POSITION":32,
						"NORMAL":33,
						"TEXCOORD_0":34
					},
					"indices":35,
					"material":0
				}
			]
		},
		{
			"name":"Cube_cell.008",
			"primitives":[
				{
					"attributes":{
						"POSITION":36,
						"NORMAL":37,
						"TEXCOORD_0":38
					},
					"indices":39,
					"material":0
				}
			]
		},
		{
			"name":"Cube_cell.009",
			"primitives":[
				{
					"attributes":{
						"POSITION":40,
						"NORMAL":41,
						"TEXCOORD_0":42
					},
					"indices":43,
					"material":0
				}
			]
		},
		{
			"name":"Cube_cell.010",
			"primitives":[
				{
					"attributes":{
						"POSITION":44,
						"NORMAL":45,
						"TEXCOORD_0":46
					},
					"indices":47,
					"material":0
				}
			]
		},
		{
			"name":"Cube_cell.011",
			"primitives":[
				{
					"attributes":{
						"POSITION":48,
						"NORMAL":49,
						"TEXCOORD_0":50
					},
					"indices":51,
					"material":0
				}
			]
		},
		{
			"name":"Cube_cell.012",
			"primitives":[
				{
					"attributes":{
						"POSITION":52,
						"NORMAL":53,
						"TEXCOORD_0":54
					},
					"indices":55,
					"material":0
				}
			]
		},
		{
			"name":"Cube_cell.013",
			"primitives":[
				{
					"attributes":{
						"POSITION":56,
						"NORMAL":57,
						"TEXCOORD_0":58
					},
					"indices":59,
					"material":0
				}
			]
		}
	],
	"textures":[
		{
			"sampler":0,
			"source":0
		}
	],
	"images":[
		{
			"bufferView":4,
			"mimeType":"image/png",
			"name":"Texture-wall"
		}
	],
	"accessors":[
		{
			"bufferView":0,
			"componentType":5126,
			"count":36,
			"max":[
				7.864627361297607,
				9.002573013305664,
				1
			],
			"min":[
				-6.253561973571777,
				-5.956751823425293,
				-1
			],
			"type":"VEC3"
		},
		{
			"bufferView":1,
			"componentType":5126,
			"count":36,
			"type":"VEC3"
		},
		{
			"bufferView":2,
			"componentType":5126,
			"count":36,
			"type":"VEC2"
		},
		{
			"bufferView":3,
			"componentType":5123,
			"count":60,
			"type":"SCALAR"
		},
		{
			"bufferView":5,
			"componentType":5126,
			"count":36,
			"max":[
				5.705144882202148,
				1.3931468725204468,
				0.9163203239440918
			],
			"min":[
				-4.434812545776367,
				-2.5219509601593018,
				-1.0836796760559082
			],
			"type":"VEC3"
		},
		{
			"bufferView":6,
			"componentType":5126,
			"count":36,
			"type":"VEC3"
		},
		{
			"bufferView":7,
			"componentType":5126,
			"count":36,
			"type":"VEC2"
		},
		{
			"bufferView":8,
			"componentType":5123,
			"count":54,
			"type":"SCALAR"
		},
		{
			"bufferView":9,
			"componentType":5126,
			"count":18,
			"max":[
				2.5677900314331055,
				6.552868843078613,
				1
			],
			"min":[
				-5.135901927947998,
				-6.553286552429199,
				-1
			],
			"type":"VEC3"
		},
		{
			"bufferView":10,
			"componentType":5126,
			"count":18,
			"type":"VEC3"
		},
		{
			"bufferView":11,
			"componentType":5126,
			"count":18,
			"type":"VEC2"
		},
		{
			"bufferView":12,
			"componentType":5123,
			"count":24,
			"type":"SCALAR"
		},
		{
			"bufferView":13,
			"componentType":5126,
			"count":50,
			"max":[
				9.007719039916992,
				8.82118034362793,
				0.8799477815628052
			],
			"min":[
				-10.865316390991211,
				-8.377610206604004,
				-1.1200522184371948
			],
			"type":"VEC3"
		},
		{
			"bufferView":14,
			"componentType":5126,
			"count":50,
			"type":"VEC3"
		},
		{
			"bufferView":15,
			"componentType":5126,
			"count":50,
			"type":"VEC2"
		},
		{
			"bufferView":16,
			"componentType":5123,
			"count":84,
			"type":"SCALAR"
		},
		{
			"bufferView":17,
			"componentType":5126,
			"count":32,
			"max":[
				5.455621242523193,
				6.765771865844727,
				0.6064387559890747
			],
			"min":[
				-4.646670818328857,
				-1.6611112356185913,
				-1.3935612440109253
			],
			"type":"VEC3"
		},
		{
			"bufferView":18,
			"componentType":5126,
			"count":32,
			"type":"VEC3"
		},
		{
			"bufferView":19,
			"componentType":5126,
			"count":32,
			"type":"VEC2"
		},
		{
			"bufferView":20,
			"componentType":5123,
			"count":48,
			"type":"SCALAR"
		},
		{
			"bufferView":21,
			"componentType":5126,
			"count":36,
			"max":[
				8.899795532226562,
				3.0141305923461914,
				1
			],
			"min":[
				-6.751296043395996,
				-4.6187214851379395,
				-1
			],
			"type":"VEC3"
		},
		{
			"bufferView":22,
			"componentType":5126,
			"count":36,
			"type":"VEC3"
		},
		{
			"bufferView":23,
			"componentType":5126,
			"count":36,
			"type":"VEC2"
		},
		{
			"bufferView":24,
			"componentType":5123,
			"count":60,
			"type":"SCALAR"
		},
		{
			"bufferView":25,
			"componentType":5126,
			"count":24,
			"max":[
				6.442333698272705,
				1.8792022466659546,
				1
			],
			"min":[
				-4.7409844398498535,
				-4.894459247589111,
				-1
			],
			"type":"VEC3"
		},
		{
			"bufferView":26,
			"componentType":5126,
			"count":24,
			"type":"VEC3"
		},
		{
			"bufferView":27,
			"componentType":5126,
			"count":24,
			"type":"VEC2"
		},
		{
			"bufferView":28,
			"componentType":5123,
			"count":36,
			"type":"SCALAR"
		},
		{
			"bufferView":29,
			"componentType":5126,
			"count":36,
			"max":[
				10.427634239196777,
				9.086783409118652,
				1
			],
			"min":[
				-10.939752578735352,
				-10.423081398010254,
				-1
			],
			"type":"VEC3"
		},
		{
			"bufferView":30,
			"componentType":5126,
			"count":36,
			"type":"VEC3"
		},
		{
			"bufferView":31,
			"componentType":5126,
			"count":36,
			"type":"VEC2"
		},
		{
			"bufferView":32,
			"componentType":5123,
			"count":60,
			"type":"SCALAR"
		},
		{
			"bufferView":33,
			"componentType":5126,
			"count":38,
			"max":[
				6.718390941619873,
				7.9276323318481445,
				0.923076868057251
			],
			"min":[
				-6.985285758972168,
				-7.765316009521484,
				-1.076923131942749
			],
			"type":"VEC3"
		},
		{
			"bufferView":34,
			"componentType":5126,
			"count":38,
			"type":"VEC3"
		},
		{
			"bufferView":35,
			"componentType":5126,
			"count":38,
			"type":"VEC2"
		},
		{
			"bufferView":36,
			"componentType":5123,
			"count":66,
			"type":"SCALAR"
		},
		{
			"bufferView":37,
			"componentType":5126,
			"count":24,
			"max":[
				4.691245079040527,
				1.0540566444396973,
				1
			],
			"min":[
				-4.70469856262207,
				-0.9203986525535583,
				-1
			],
			"type":"VEC3"
		},
		{
			"bufferView":38,
			"componentType":5126,
			"count":24,
			"type":"VEC3"
		},
		{
			"bufferView":39,
			"componentType":5126,
			"count":24,
			"type":"VEC2"
		},
		{
			"bufferView":40,
			"componentType":5123,
			"count":36,
			"type":"SCALAR"
		},
		{
			"bufferView":41,
			"componentType":5126,
			"count":24,
			"max":[
				6.617124557495117,
				1.00350022315979,
				1
			],
			"min":[
				-7.326123237609863,
				-1.270282506942749,
				-1
			],
			"type":"VEC3"
		},
		{
			"bufferView":42,
			"componentType":5126,
			"count":24,
			"type":"VEC3"
		},
		{
			"bufferView":43,
			"componentType":5126,
			"count":24,
			"type":"VEC2"
		},
		{
			"bufferView":44,
			"componentType":5123,
			"count":36,
			"type":"SCALAR"
		},
		{
			"bufferView":45,
			"componentType":5126,
			"count":44,
			"max":[
				6.951632022857666,
				8.088598251342773,
				0.8622967004776001
			],
			"min":[
				-15.201101303100586,
				-5.6091790199279785,
				-1.1377032995224
			],
			"type":"VEC3"
		},
		{
			"bufferView":46,
			"componentType":5126,
			"count":44,
			"type":"VEC3"
		},
		{
			"bufferView":47,
			"componentType":5126,
			"count":44,
			"type":"VEC2"
		},
		{
			"bufferView":48,
			"componentType":5123,
			"count":72,
			"type":"SCALAR"
		},
		{
			"bufferView":49,
			"componentType":5126,
			"count":24,
			"max":[
				5.604343414306641,
				8.6469144821167,
				1
			],
			"min":[
				-3.4570846557617188,
				-7.653834819793701,
				-1
			],
			"type":"VEC3"
		},
		{
			"bufferView":50,
			"componentType":5126,
			"count":24,
			"type":"VEC3"
		},
		{
			"bufferView":51,
			"componentType":5126,
			"count":24,
			"type":"VEC2"
		},
		{
			"bufferView":52,
			"componentType":5123,
			"count":36,
			"type":"SCALAR"
		},
		{
			"bufferView":53,
			"componentType":5126,
			"count":36,
			"max":[
				3.8838841915130615,
				5.503893852233887,
				1
			],
			"min":[
				-5.304134368896484,
				-8.482404708862305,
				-1
			],
			"type":"VEC3"
		},
		{
			"bufferView":54,
			"componentType":5126,
			"count":36,
			"type":"VEC3"
		},
		{
			"bufferView":55,
			"componentType":5126,
			"count":36,
			"type":"VEC2"
		},
		{
			"bufferView":56,
			"componentType":5123,
			"count":60,
			"type":"SCALAR"
		},
		{
			"bufferView":57,
			"componentType":5126,
			"count":24,
			"max":[
				3.1391959190368652,
				2.952970027923584,
				1
			],
			"min":[
				-2.9211440086364746,
				-8.002962112426758,
				-1
			],
			"type":"VEC3"
		},
		{
			"bufferView":58,
			"componentType":5126,
			"count":24,
			"type":"VEC3"
		},
		{
			"bufferView":59,
			"componentType":5126,
			"count":24,
			"type":"VEC2"
		},
		{
			"bufferView":60,
			"componentType":5123,
			"count":36,
			"type":"SCALAR"
		}
	],
	"bufferViews":[
		{
			"buffer":0,
			"byteLength":432,
			"byteOffset":0,
			"target":34962
		},
		{
			"buffer":0,
			"byteLength":432,
			"byteOffset":432,
			"target":34962
		},
		{
			"buffer":0,
			"byteLength":288,
			"byteOffset":864,
			"target":34962
		},
		{
			"buffer":0,
			"byteLength":120,
			"byteOffset":1152,
			"target":34963
		},
		{
			"buffer":0,
			"byteLength":48008,
			"byteOffset":1272
		},
		{
			"buffer":0,
			"byteLength":432,
			"byteOffset":49280,
			"target":34962
		},
		{
			"buffer":0,
			"byteLength":432,
			"byteOffset":49712,
			"target":34962
		},
		{
			"buffer":0,
			"byteLength":288,
			"byteOffset":50144,
			"target":34962
		},
		{
			"buffer":0,
			"byteLength":108,
			"byteOffset":50432,
			"target":34963
		},
		{
			"buffer":0,
			"byteLength":216,
			"byteOffset":50540,
			"target":34962
		},
		{
			"buffer":0,
			"byteLength":216,
			"byteOffset":50756,
			"target":34962
		},
		{
			"buffer":0,
			"byteLength":144,
			"byteOffset":50972,
			"target":34962
		},
		{
			"buffer":0,
			"byteLength":48,
			"byteOffset":51116,
			"target":34963
		},
		{
			"buffer":0,
			"byteLength":600,
			"byteOffset":51164,
			"target":34962
		},
		{
			"buffer":0,
			"byteLength":600,
			"byteOffset":51764,
			"target":34962
		},
		{
			"buffer":0,
			"byteLength":400,
			"byteOffset":52364,
			"target":34962
		},
		{
			"buffer":0,
			"byteLength":168,
			"byteOffset":52764,
			"target":34963
		},
		{
			"buffer":0,
			"byteLength":384,
			"byteOffset":52932,
			"target":34962
		},
		{
			"buffer":0,
			"byteLength":384,
			"byteOffset":53316,
			"target":34962
		},
		{
			"buffer":0,
			"byteLength":256,
			"byteOffset":53700,
			"target":34962
		},
		{
			"buffer":0,
			"byteLength":96,
			"byteOffset":53956,
			"target":34963
		},
		{
			"buffer":0,
			"byteLength":432,
			"byteOffset":54052,
			"target":34962
		},
		{
			"buffer":0,
			"byteLength":432,
			"byteOffset":54484,
			"target":34962
		},
		{
			"buffer":0,
			"byteLength":288,
			"byteOffset":54916,
			"target":34962
		},
		{
			"buffer":0,
			"byteLength":120,
			"byteOffset":55204,
			"target":34963
		},
		{
			"buffer":0,
			"byteLength":288,
			"byteOffset":55324,
			"target":34962
		},
		{
			"buffer":0,
			"byteLength":288,
			"byteOffset":55612,
			"target":34962
		},
		{
			"buffer":0,
			"byteLength":192,
			"byteOffset":55900,
			"target":34962
		},
		{
			"buffer":0,
			"byteLength":72,
			"byteOffset":56092,
			"target":34963
		},
		{
			"buffer":0,
			"byteLength":432,
			"byteOffset":56164,
			"target":34962
		},
		{
			"buffer":0,
			"byteLength":432,
			"byteOffset":56596,
			"target":34962
		},
		{
			"buffer":0,
			"byteLength":288,
			"byteOffset":57028,
			"target":34962
		},
		{
			"buffer":0,
			"byteLength":120,
			"byteOffset":57316,
			"target":34963
		},
		{
			"buffer":0,
			"byteLength":456,
			"byteOffset":57436,
			"target":34962
		},
		{
			"buffer":0,
			"byteLength":456,
			"byteOffset":57892,
			"target":34962
		},
		{
			"buffer":0,
			"byteLength":304,
			"byteOffset":58348,
			"target":34962
		},
		{
			"buffer":0,
			"byteLength":132,
			"byteOffset":58652,
			"target":34963
		},
		{
			"buffer":0,
			"byteLength":288,
			"byteOffset":58784,
			"target":34962
		},
		{
			"buffer":0,
			"byteLength":288,
			"byteOffset":59072,
			"target":34962
		},
		{
			"buffer":0,
			"byteLength":192,
			"byteOffset":59360,
			"target":34962
		},
		{
			"buffer":0,
			"byteLength":72,
			"byteOffset":59552,
			"target":34963
		},
		{
			"buffer":0,
			"byteLength":288,
			"byteOffset":59624,
			"target":34962
		},
		{
			"buffer":0,
			"byteLength":288,
			"byteOffset":59912,
			"target":34962
		},
		{
			"buffer":0,
			"byteLength":192,
			"byteOffset":60200,
			"target":34962
		},
		{
			"buffer":0,
			"byteLength":72,
			"byteOffset":60392,
			"target":34963
		},
		{
			"buffer":0,
			"byteLength":528,
			"byteOffset":60464,
			"target":34962
		},
		{
			"buffer":0,
			"byteLength":528,
			"byteOffset":60992,
			"target":34962
		},
		{
			"buffer":0,
			"byteLength":352,
			"byteOffset":61520,
			"target":34962
		},
		{
			"buffer":0,
			"byteLength":144,
			"byteOffset":61872,
			"target":34963
		},
		{
			"buffer":0,
			"byteLength":288,
			"byteOffset":62016,
			"target":34962
		},
		{
			"buffer":0,
			"byteLength":288,
			"byteOffset":62304,
			"target":34962
		},
		{
			"buffer":0,
			"byteLength":192,
			"byteOffset":62592,
			"target":34962
		},
		{
			"buffer":0,
			"byteLength":72,
			"byteOffset":62784,
			"target":34963
		},
		{
			"buffer":0,
			"byteLength":432,
			"byteOffset":62856,
			"target":34962
		},
		{
			"buffer":0,
			"byteLength":432,
			"byteOffset":63288,
			"target":34962
		},
		{
			"buffer":0,
			"byteLength":288,
			"byteOffset":63720,
			"target":34962
		},
		{
			"buffer":0,
			"byteLength":120,
			"byteOffset":64008,
			"target":34963
		},
		{
			"buffer":0,
			"byteLength":288,
			"byteOffset":64128,
			"target":34962
		},
		{
			"buffer":0,
			"byteLength":288,
			"byteOffset":64416,
			"target":34962
		},
		{
			"buffer":0,
			"byteLength":192,
			"byteOffset":64704,
			"target":34962
		},
		{
			"buffer":0,
			"byteLength":72,
			"byteOffset":64896,
			"target":34963
		}
	],
	"samplers":[
		{
			"magFilter":9728,
			"minFilter":9984
		}
	],
	"buffers":[
		{
			"byteLength":64968,
			"uri":"data:application/octet-stream;base64,"
		}
	]
}
