{
	"asset":{
		"generator":"Khronos glTF Blender I/O v3.6.27",
		"version":"2.0"
	},
	"scene":0,
	"scenes":[
		{
			"name":"Scene",
			"nodes":[
				0
			]
		}
	],
	"nodes":[
		{
			"mesh":0,
			"name":"Plane",
			"rotation":[
				0.7023002505302429,
				0,
				0,
				0.7118809223175049
			],
			"scale":[
				1.8004528284072876,
				1.1689661741256714,
				1.1689661741256714
			],
			"translation":[
				-0.4624202847480774,
				1.1728075742721558,
				-0.06017189845442772
			]
		}
	],
	"materials":[
		{
			"doubleSided":true,
			"name":"Material.001",
			"pbrMetallicRoughness":{
				"baseColorTexture":{
					"index":0
				},
				"metallicFactor":0,
				"roughnessFactor":0.5
			}
		}
	],
	"meshes":[
		{
			"name":"Plane",
			"primitives":[
				{
					"attributes":{
						"POSITION":0,
						"NORMAL":1,
						"TEXCOORD_0":2
					},
					"indices":3,
					"material":0
				}
			]
		}
	],
	"textures":[
		{
			"sampler":0,
			"source":0
		}
	],
	"images":[
		{
			"mimeType":"image/png",
			"name":"RepisasText",
			"uri":"RepisasText.png"
		}
	],
	"accessors":[
		{
			"bufferView":0,
			"componentType":5126,
			"count":1497,
			"max":[
				1.253814458847046,
				0.8534015417098999,
				1.0066391229629517
			],
			"min":[
				-1.253814458847046,
				-0.023873507976531982,
				-1.0057463645935059
			],
			"type":"VEC3"
		},
		{
			"bufferView":1,
			"componentType":5126,
			"count":1497,
			"type":"VEC3"
		},
		{
			"bufferView":2,
			"componentType":5126,
			"count":1497,
			"type":"VEC2"
		},
		{
			"bufferView":3,
			"componentType":5123,
			"count":2808,
			"type":"SCALAR"
		}
	],
	"bufferViews":[
		{
			"buffer":0,
			"byteLength":17964,
			"byteOffset":0,
			"target":34962
		},
		{
			"buffer":0,
			"byteLength":17964,
			"byteOffset":17964,
			"target":34962
		},
		{
			"buffer":0,
			"byteLength":11976,
			"byteOffset":35928,
			"target":34962
		},
		{
			"buffer":0,
			"byteLength":5616,
			"byteOffset":47904,
			"target":34963
		}
	],
	"samplers":[
		{
			"magFilter":9728,
			"minFilter":9984
		}
	],
	"buffers":[
		{
			"byteLength":53520,
			"uri":"Repisas.bin"
		}
	]
}
