{
	"asset":{
		"generator":"Khronos glTF Blender I/O v3.6.27",
		"version":"2.0"
	},
	"scene":0,
	"scenes":[
		{
			"name":"Scene",
			"nodes":[
				0
			]
		}
	],
	"nodes":[
		{
			"mesh":0,
			"name":"Cachetes, pies y manos"
		}
	],
	"animations":[
		{
			"channels":[
				{
					"sampler":0,
					"target":{
						"node":0,
						"path":"translation"
					}
				}
			],
			"name":"Talk",
			"samplers":[
				{
					"input":4,
					"interpolation":"LINEAR",
					"output":5
				}
			]
		}
	],
	"materials":[
		{
			"doubleSided":true,
			"name":"Material.001",
			"pbrMetallicRoughness":{
				"baseColorTexture":{
					"index":0
				},
				"metallicFactor":0,
				"roughnessFactor":0.5
			}
		}
	],
	"meshes":[
		{
			"name":"Sphere.001",
			"primitives":[
				{
					"attributes":{
						"POSITION":0,
						"NORMAL":1,
						"TEXCOORD_0":2
					},
					"indices":3,
					"material":0
				}
			]
		}
	],
	"textures":[
		{
			"sampler":0,
			"source":0
		}
	],
	"images":[
		{
			"bufferView":4,
			"mimeType":"image/png",
			"name":"hamster"
		}
	],
	"accessors":[
		{
			"bufferView":0,
			"componentType":5126,
			"count":2427,
			"max":[
				0.9807851314544678,
				1.9680134057998657,
				0.9807849526405334
			],
			"min":[
				-0.9807848334312439,
				-1,
				-0.9807852506637573
			],
			"type":"VEC3"
		},
		{
			"bufferView":1,
			"componentType":5126,
			"count":2427,
			"type":"VEC3"
		},
		{
			"bufferView":2,
			"componentType":5126,
			"count":2427,
			"type":"VEC2"
		},
		{
			"bufferView":3,
			"componentType":5123,
			"count":3489,
			"type":"SCALAR"
		},
		{
			"bufferView":5,
			"componentType":5126,
			"count":25,
			"max":[
				1.0416666666666667
			],
			"min":[
				0.041666666666666664
			],
			"type":"SCALAR"
		},
		{
			"bufferView":6,
			"componentType":5126,
			"count":25,
			"type":"VEC3"
		}
	],
	"bufferViews":[
		{
			"buffer":0,
			"byteLength":29124,
			"byteOffset":0,
			"target":34962
		},
		{
			"buffer":0,
			"byteLength":29124,
			"byteOffset":29124,
			"target":34962
		},
		{
			"buffer":0,
			"byteLength":19416,
			"byteOffset":58248,
			"target":34962
		},
		{
			"buffer":0,
			"byteLength":6978,
			"byteOffset":77664,
			"target":34963
		},
		{
			"buffer":0,
			"byteLength":237321,
			"byteOffset":84644
		},
		{
			"buffer":0,
			"byteLength":100,
			"byteOffset":321968
		},
		{
			"buffer":0,
			"byteLength":300,
			"byteOffset":322068
		}
	],
	"samplers":[
		{
			"magFilter":9729,
			"minFilter":9987
		}
	],
	"buffers":[
		{
			"byteLength":322368,
			"uri":"data:application/octet-stream;base64,"
		}
	]
}
